<?xml version="1.0" encoding="utf-8"?>
<!-- Generator: Adobe Illustrator 16.0.0, SVG Export Plug-In . SVG Version: 6.00 Build 0)  -->
<!DOCTYPE svg PUBLIC "-//W3C//DTD SVG 1.1//EN" "http://www.w3.org/Graphics/SVG/1.1/DTD/svg11.dtd">
<svg version="1.1" id="Layer_1" xmlns="http://www.w3.org/2000/svg" xmlns:xlink="http://www.w3.org/1999/xlink" x="0px" y="0px"
	 width="756.15px" height="209.984px" viewBox="42.869 193.873 756.15 209.984"
	 enable-background="new 42.869 193.873 756.15 209.984" xml:space="preserve">
<g>
	<g>
		<g>
			<g enable-background="new    ">
				<path fill="#585A5E" d="M387.974,280.062c0.646,0.724,0.968,1.641,0.968,2.753c0,1.113-0.322,2.031-0.968,2.754
					c-0.646,0.722-1.468,1.083-2.469,1.083c-1,0-1.821-0.361-2.462-1.083c-0.642-0.723-0.962-1.641-0.962-2.754
					c0-1.112,0.32-2.029,0.962-2.753c0.642-0.722,1.462-1.083,2.462-1.083C386.507,278.979,387.329,279.341,387.974,280.062z
					 M387.072,284.763c0.399-0.508,0.6-1.157,0.6-1.948c0-0.79-0.2-1.438-0.6-1.947c-0.398-0.508-0.921-0.763-1.566-0.763
					c-0.646,0-1.166,0.252-1.562,0.757c-0.396,0.504-0.593,1.154-0.593,1.953c0,0.8,0.198,1.45,0.593,1.954
					c0.396,0.506,0.915,0.758,1.562,0.758C386.151,285.527,386.674,285.271,387.072,284.763z"/>
				<path fill="#585A5E" d="M393.116,281.134v1.246c-0.169-0.121-0.406-0.182-0.714-0.182c-0.258,0-0.487,0.074-0.689,0.224
					s-0.331,0.361-0.387,0.636v3.474h-1.211v-5.372h1.211v0.557c0.104-0.202,0.267-0.365,0.483-0.49s0.456-0.188,0.714-0.188
					C392.805,281.037,393.004,281.069,393.116,281.134z"/>
				<path fill="#585A5E" d="M397.715,286.53v-0.46c-0.129,0.16-0.319,0.299-0.568,0.41c-0.25,0.113-0.517,0.171-0.799,0.171
					c-0.767,0-1.374-0.27-1.821-0.806s-0.672-1.204-0.672-2.003c0-0.798,0.225-1.466,0.672-2.002
					c0.447-0.537,1.055-0.805,1.821-0.805c0.282,0,0.548,0.057,0.799,0.169c0.25,0.113,0.439,0.25,0.568,0.411v-2.952h1.21v7.865
					L397.715,286.53L397.715,286.53z M397.715,284.86v-2.032c-0.105-0.21-0.263-0.382-0.473-0.516
					c-0.21-0.133-0.439-0.198-0.689-0.198c-0.459,0-0.823,0.16-1.089,0.482c-0.267,0.323-0.399,0.738-0.399,1.246
					c0,0.509,0.133,0.924,0.399,1.247c0.266,0.322,0.629,0.483,1.089,0.483c0.25,0,0.479-0.066,0.689-0.199
					S397.609,285.07,397.715,284.86z"/>
				<path fill="#585A5E" d="M403.74,284.86h1.113c-0.097,0.549-0.341,0.983-0.732,1.307s-0.9,0.484-1.53,0.484
					c-0.75,0-1.361-0.259-1.833-0.774c-0.473-0.517-0.708-1.189-0.708-2.021c0-0.807,0.237-1.479,0.714-2.015
					c0.476-0.537,1.077-0.805,1.803-0.805c0.742,0,1.316,0.24,1.724,0.72c0.407,0.48,0.611,1.123,0.611,1.93v0.437h-3.666
					c0.017,0.468,0.147,0.837,0.394,1.106c0.245,0.271,0.566,0.405,0.962,0.405C403.227,285.635,403.611,285.377,403.74,284.86z
					 M402.578,282.053c-0.338,0-0.623,0.104-0.853,0.31c-0.229,0.204-0.381,0.498-0.454,0.877h2.432
					c-0.008-0.348-0.108-0.632-0.303-0.854C403.207,282.164,402.933,282.053,402.578,282.053z"/>
				<path fill="#585A5E" d="M409.015,281.134v1.246c-0.169-0.121-0.407-0.182-0.714-0.182c-0.258,0-0.488,0.074-0.69,0.224
					s-0.331,0.361-0.387,0.636v3.474h-1.21v-5.372h1.21v0.557c0.104-0.202,0.267-0.365,0.484-0.49
					c0.217-0.125,0.455-0.188,0.714-0.188C408.705,281.037,408.903,281.069,409.015,281.134z"/>
			</g>
		</g>
		<g>
			<rect x="258.684" y="243.959" fill="#20B5AE" width="101.191" height="93.501"/>
			<g>
				<g enable-background="new    ">
					<path fill="#FFFFFF" d="M290.1,268.854c0.516,0,0.938,0.066,1.265,0.199c0.327,0.133,0.583,0.303,0.769,0.509
						c0.186,0.205,0.314,0.437,0.387,0.689c0.073,0.254,0.109,0.506,0.109,0.756c0,0.228-0.036,0.441-0.107,0.647
						c-0.07,0.206-0.171,0.39-0.298,0.551s-0.273,0.296-0.44,0.405c-0.167,0.107-0.351,0.18-0.549,0.212v0.036
						c0.177,0.031,0.365,0.089,0.568,0.169c0.203,0.081,0.392,0.201,0.568,0.362c0.175,0.161,0.322,0.369,0.441,0.623
						s0.181,0.571,0.181,0.95c0,0.307-0.045,0.601-0.134,0.883c-0.089,0.283-0.248,0.533-0.478,0.751
						c-0.23,0.219-0.538,0.394-0.925,0.526c-0.388,0.133-0.884,0.199-1.489,0.199h-3.582v-8.471h3.714V268.854z M287.523,272.448
						h2.301c0.316,0,0.581-0.037,0.792-0.109c0.212-0.072,0.382-0.169,0.512-0.29s0.223-0.261,0.279-0.418
						c0.058-0.157,0.085-0.324,0.085-0.502c0-0.121-0.019-0.258-0.055-0.411c-0.037-0.153-0.112-0.297-0.226-0.43
						c-0.114-0.133-0.278-0.246-0.493-0.339c-0.215-0.094-0.501-0.14-0.858-0.14h-2.337V272.448L287.523,272.448z M287.523,276.368
						h2.373c0.195,0,0.408-0.015,0.64-0.042c0.23-0.028,0.443-0.094,0.639-0.193c0.195-0.102,0.356-0.25,0.487-0.448
						c0.13-0.196,0.194-0.47,0.194-0.815c0-0.274-0.046-0.504-0.14-0.69c-0.094-0.185-0.226-0.334-0.396-0.447
						c-0.171-0.112-0.375-0.194-0.614-0.247c-0.239-0.054-0.51-0.078-0.81-0.078h-2.373V276.368L287.523,276.368z"/>
					<path fill="#FFFFFF" d="M294.359,272.992c0-0.201,0.034-0.423,0.104-0.665c0.067-0.242,0.197-0.466,0.387-0.672
						s0.456-0.377,0.798-0.515c0.343-0.138,0.785-0.206,1.325-0.206c0.25,0,0.518,0.024,0.805,0.072
						c0.286,0.049,0.553,0.146,0.799,0.291c0.245,0.145,0.449,0.353,0.61,0.623c0.162,0.271,0.238,0.631,0.23,1.083l-0.062,2.843
						c0,0.121,0.002,0.229,0.006,0.321c0.004,0.093,0.026,0.169,0.066,0.229c0.04,0.061,0.105,0.107,0.194,0.141
						c0.088,0.032,0.213,0.044,0.375,0.036v0.75c-0.073,0.016-0.145,0.027-0.212,0.035c-0.068,0.009-0.159,0.014-0.272,0.014
						c-0.146,0-0.281-0.011-0.406-0.03c-0.125-0.021-0.233-0.061-0.327-0.121c-0.093-0.06-0.169-0.148-0.229-0.267
						c-0.061-0.117-0.107-0.276-0.139-0.479c-0.105,0.193-0.234,0.358-0.388,0.496c-0.152,0.137-0.322,0.25-0.508,0.339
						c-0.186,0.088-0.381,0.152-0.587,0.193c-0.206,0.04-0.414,0.061-0.623,0.061c-0.646,0-1.168-0.146-1.567-0.44
						c-0.398-0.295-0.599-0.766-0.599-1.41c0-0.267,0.04-0.506,0.121-0.72s0.234-0.403,0.459-0.569
						c0.226-0.165,0.533-0.302,0.92-0.411c0.387-0.107,0.891-0.19,1.512-0.248c0.227-0.016,0.416-0.032,0.569-0.048
						c0.153-0.017,0.276-0.051,0.369-0.104s0.159-0.132,0.2-0.235c0.04-0.105,0.061-0.259,0.061-0.46
						c0-0.072-0.008-0.178-0.023-0.314c-0.017-0.138-0.069-0.273-0.157-0.411c-0.089-0.138-0.227-0.257-0.412-0.356
						s-0.448-0.151-0.786-0.151c-0.097,0-0.236,0.009-0.417,0.024c-0.182,0.017-0.361,0.066-0.539,0.151
						c-0.178,0.084-0.331,0.214-0.46,0.387c-0.129,0.174-0.188,0.422-0.181,0.744H294.359z M298.352,274.177
						c-0.081,0.065-0.164,0.111-0.252,0.141c-0.088,0.027-0.184,0.051-0.288,0.065c-0.104,0.018-0.222,0.03-0.354,0.042
						c-0.132,0.013-0.282,0.03-0.45,0.055c-0.232,0.041-0.455,0.079-0.667,0.115s-0.398,0.093-0.559,0.169
						c-0.159,0.077-0.285,0.188-0.378,0.333c-0.092,0.146-0.138,0.339-0.138,0.581c0,0.363,0.11,0.645,0.33,0.841
						c0.22,0.198,0.502,0.297,0.846,0.297c0.208,0,0.418-0.029,0.63-0.091c0.213-0.061,0.408-0.17,0.589-0.327
						c0.18-0.156,0.329-0.372,0.449-0.646c0.12-0.273,0.192-0.625,0.217-1.053L298.352,274.177z"/>
					<path fill="#FFFFFF" d="M302.321,268.854v8.471h-1.064v-8.471H302.321z"/>
					<path fill="#FFFFFF" d="M305.129,268.854v8.471h-1.065v-8.471H305.129z"/>
					<path fill="#FFFFFF" d="M312.315,275.546c-0.041,0.218-0.114,0.445-0.224,0.684c-0.109,0.237-0.266,0.455-0.472,0.653
						c-0.206,0.197-0.471,0.361-0.792,0.49c-0.323,0.129-0.723,0.192-1.198,0.192c-0.508,0-0.938-0.067-1.289-0.205
						c-0.352-0.138-0.641-0.312-0.871-0.526s-0.41-0.449-0.539-0.708c-0.129-0.258-0.224-0.508-0.284-0.75
						c-0.06-0.242-0.097-0.462-0.108-0.659c-0.013-0.197-0.019-0.345-0.019-0.441c0-0.138,0.008-0.315,0.024-0.538
						c0.016-0.223,0.057-0.455,0.121-0.701c0.063-0.246,0.161-0.494,0.291-0.744c0.129-0.25,0.304-0.478,0.525-0.678
						c0.223-0.202,0.498-0.365,0.829-0.49s0.734-0.188,1.21-0.188c0.613,0,1.104,0.106,1.47,0.32
						c0.367,0.214,0.649,0.482,0.848,0.805c0.196,0.323,0.331,0.677,0.398,1.06c0.068,0.384,0.11,0.74,0.127,1.07
						c0,0.049,0.002,0.1,0.007,0.151c0.004,0.052,0.006,0.104,0.006,0.151h-4.731c0,0.266,0.037,0.536,0.109,0.811
						c0.073,0.274,0.186,0.522,0.339,0.744s0.353,0.405,0.599,0.551s0.546,0.218,0.901,0.218c0.25,0,0.476-0.033,0.678-0.104
						c0.201-0.068,0.373-0.161,0.515-0.278c0.141-0.115,0.254-0.252,0.339-0.404c0.084-0.153,0.143-0.314,0.175-0.483
						L312.315,275.546L312.315,275.546z M311.251,273.742c-0.008-0.201-0.036-0.423-0.085-0.665
						c-0.048-0.242-0.136-0.466-0.261-0.672c-0.125-0.205-0.297-0.377-0.515-0.515s-0.5-0.206-0.847-0.206
						c-0.388,0-0.706,0.07-0.956,0.212c-0.25,0.143-0.446,0.316-0.587,0.526c-0.142,0.21-0.236,0.434-0.284,0.672
						c-0.048,0.237-0.073,0.453-0.073,0.646L311.251,273.742L311.251,273.742z"/>
					<path fill="#FFFFFF" d="M317.204,271.685c-0.363,0.018-0.685,0.064-0.963,0.146c-0.277,0.08-0.517,0.205-0.714,0.375
						c-0.197,0.169-0.354,0.387-0.472,0.653s-0.188,0.593-0.211,0.979c-0.008,0.112-0.012,0.222-0.012,0.326s0,0.214,0,0.327v2.831
						h-1.065v-6.146h1.065v1.187h0.023c0.073-0.227,0.181-0.427,0.321-0.6c0.141-0.174,0.303-0.318,0.484-0.436
						s0.377-0.208,0.587-0.272c0.21-0.063,0.424-0.101,0.642-0.108l0.314-0.013L317.204,271.685L317.204,271.685z"/>
					<path fill="#FFFFFF" d="M318.209,268.854h1.063v1.113h-1.063V268.854z M319.272,271.177v6.146h-1.063v-6.146H319.272z"/>
					<path fill="#FFFFFF" d="M322.055,271.177v0.858c0.209-0.307,0.492-0.566,0.847-0.78s0.774-0.32,1.259-0.32
						c0.402,0,0.735,0.062,0.997,0.188c0.263,0.126,0.469,0.292,0.617,0.502c0.149,0.21,0.254,0.454,0.314,0.731
						c0.06,0.278,0.091,0.57,0.091,0.878v4.09h-1.065v-3.764c0-0.162-0.006-0.352-0.018-0.568c-0.012-0.219-0.056-0.423-0.133-0.617
						c-0.077-0.193-0.204-0.356-0.381-0.489c-0.178-0.134-0.433-0.2-0.763-0.2c-0.145,0-0.318,0.024-0.521,0.072
						c-0.202,0.049-0.396,0.151-0.581,0.309c-0.187,0.158-0.343,0.389-0.472,0.69s-0.193,0.707-0.193,1.216v3.353h-1.065v-6.146
						h1.066V271.177z"/>
					<path fill="#FFFFFF" d="M327.719,272.992c0-0.201,0.034-0.423,0.103-0.665s0.197-0.466,0.388-0.672
						c0.188-0.206,0.456-0.377,0.798-0.515c0.343-0.138,0.785-0.206,1.325-0.206c0.25,0,0.518,0.024,0.805,0.072
						c0.286,0.049,0.552,0.146,0.798,0.291s0.45,0.353,0.611,0.623c0.162,0.271,0.238,0.631,0.229,1.083l-0.061,2.843
						c0,0.121,0.002,0.229,0.006,0.321c0.004,0.093,0.026,0.169,0.066,0.229c0.04,0.061,0.104,0.107,0.193,0.141
						c0.088,0.032,0.213,0.044,0.375,0.036v0.75c-0.072,0.016-0.144,0.027-0.212,0.035c-0.067,0.009-0.159,0.014-0.271,0.014
						c-0.146,0-0.281-0.011-0.406-0.03c-0.125-0.021-0.234-0.061-0.327-0.121c-0.093-0.06-0.169-0.148-0.229-0.267
						c-0.061-0.117-0.107-0.276-0.14-0.479c-0.104,0.193-0.233,0.358-0.387,0.496c-0.153,0.137-0.323,0.25-0.508,0.339
						c-0.187,0.088-0.381,0.152-0.587,0.193c-0.206,0.04-0.414,0.061-0.623,0.061c-0.646,0-1.168-0.146-1.567-0.44
						c-0.398-0.295-0.599-0.766-0.599-1.41c0-0.267,0.04-0.506,0.121-0.72s0.233-0.403,0.459-0.569
						c0.226-0.165,0.532-0.302,0.92-0.411c0.387-0.107,0.891-0.19,1.512-0.248c0.226-0.016,0.416-0.032,0.569-0.048
						c0.152-0.017,0.275-0.051,0.369-0.104c0.093-0.053,0.158-0.132,0.199-0.235c0.04-0.105,0.062-0.259,0.062-0.46
						c0-0.072-0.008-0.178-0.024-0.314c-0.016-0.138-0.068-0.273-0.157-0.411s-0.226-0.257-0.411-0.356
						c-0.187-0.1-0.448-0.151-0.786-0.151c-0.098,0-0.236,0.009-0.417,0.024c-0.183,0.017-0.361,0.066-0.539,0.151
						c-0.179,0.084-0.331,0.214-0.46,0.387c-0.129,0.174-0.189,0.422-0.182,0.744H327.719z M331.712,274.177
						c-0.081,0.065-0.164,0.111-0.252,0.141c-0.088,0.027-0.185,0.051-0.288,0.065c-0.104,0.018-0.223,0.03-0.354,0.042
						c-0.132,0.013-0.281,0.03-0.45,0.055c-0.231,0.041-0.454,0.079-0.667,0.115c-0.212,0.036-0.397,0.093-0.558,0.169
						c-0.16,0.077-0.286,0.188-0.378,0.333c-0.092,0.146-0.138,0.339-0.138,0.581c0,0.363,0.109,0.645,0.33,0.841
						c0.22,0.198,0.502,0.297,0.846,0.297c0.208,0,0.418-0.029,0.63-0.091c0.212-0.061,0.408-0.17,0.588-0.327
						c0.18-0.156,0.33-0.372,0.45-0.646c0.12-0.273,0.192-0.625,0.216-1.053L331.712,274.177z"/>
				</g>
				<g enable-background="new    ">
					<path fill="#FFFFFF" d="M283.331,285.464c0.516,0,0.938,0.066,1.265,0.199s0.583,0.303,0.768,0.509
						c0.187,0.205,0.315,0.436,0.388,0.689s0.108,0.506,0.108,0.756c0,0.227-0.036,0.44-0.106,0.646
						c-0.071,0.206-0.171,0.391-0.298,0.551c-0.127,0.161-0.274,0.297-0.441,0.405s-0.35,0.18-0.548,0.212v0.036
						c0.176,0.032,0.365,0.089,0.568,0.169c0.202,0.081,0.392,0.202,0.567,0.363c0.175,0.161,0.323,0.369,0.442,0.623
						s0.18,0.571,0.18,0.95c0,0.307-0.044,0.601-0.133,0.883c-0.089,0.283-0.248,0.533-0.479,0.751
						c-0.229,0.218-0.538,0.393-0.925,0.526c-0.387,0.133-0.883,0.198-1.489,0.198h-3.582v-8.47h3.715V285.464z M280.754,289.057
						h2.301c0.316,0,0.581-0.037,0.792-0.108c0.211-0.072,0.381-0.169,0.511-0.29s0.224-0.262,0.28-0.418
						c0.057-0.157,0.085-0.324,0.085-0.502c0-0.121-0.019-0.259-0.055-0.411c-0.037-0.153-0.112-0.297-0.227-0.431
						c-0.113-0.133-0.277-0.246-0.493-0.339c-0.215-0.093-0.501-0.139-0.857-0.139h-2.337V289.057L280.754,289.057z
						 M280.754,292.977h2.373c0.194,0,0.408-0.014,0.639-0.042c0.231-0.027,0.444-0.093,0.639-0.192
						c0.195-0.103,0.357-0.25,0.487-0.448c0.13-0.197,0.195-0.47,0.195-0.816c0-0.273-0.046-0.504-0.141-0.689
						c-0.094-0.186-0.225-0.334-0.396-0.447s-0.375-0.195-0.615-0.248c-0.239-0.053-0.509-0.078-0.809-0.078h-2.373V292.977
						L280.754,292.977z"/>
					<path fill="#FFFFFF" d="M287.445,290.86c0-0.411,0.053-0.814,0.157-1.211c0.104-0.396,0.276-0.747,0.515-1.059
						c0.237-0.311,0.55-0.562,0.938-0.757s0.859-0.29,1.416-0.29s1.028,0.097,1.416,0.29s0.7,0.446,0.938,0.757
						c0.238,0.312,0.409,0.663,0.515,1.059c0.104,0.396,0.157,0.8,0.157,1.211c0,0.41-0.054,0.813-0.157,1.21
						c-0.105,0.396-0.276,0.747-0.515,1.059c-0.237,0.311-0.551,0.562-0.938,0.756s-0.859,0.291-1.416,0.291
						s-1.029-0.097-1.416-0.291c-0.387-0.193-0.7-0.445-0.938-0.756c-0.238-0.312-0.41-0.663-0.515-1.059
						S287.445,291.271,287.445,290.86z M288.57,290.86c0,0.609,0.077,1.088,0.23,1.433c0.153,0.346,0.334,0.603,0.544,0.771
						s0.419,0.271,0.629,0.308c0.209,0.036,0.375,0.055,0.496,0.055s0.286-0.019,0.496-0.055c0.209-0.036,0.419-0.14,0.629-0.308
						c0.21-0.169,0.392-0.426,0.545-0.771s0.229-0.822,0.229-1.433c0-0.611-0.077-1.089-0.229-1.435
						c-0.153-0.345-0.335-0.602-0.545-0.771c-0.209-0.169-0.419-0.271-0.629-0.308s-0.375-0.055-0.496-0.055
						s-0.287,0.019-0.496,0.055c-0.21,0.036-0.419,0.139-0.629,0.308s-0.391,0.426-0.544,0.771
						C288.646,289.772,288.57,290.25,288.57,290.86z"/>
					<path fill="#FFFFFF" d="M294.536,290.86c0-0.411,0.052-0.814,0.156-1.211c0.104-0.396,0.276-0.747,0.515-1.059
						c0.237-0.311,0.55-0.562,0.938-0.757s0.859-0.29,1.416-0.29s1.028,0.097,1.416,0.29s0.7,0.446,0.938,0.757
						c0.237,0.312,0.408,0.663,0.514,1.059c0.104,0.396,0.157,0.8,0.157,1.211c0,0.41-0.054,0.813-0.157,1.21
						c-0.105,0.396-0.276,0.747-0.514,1.059c-0.238,0.311-0.552,0.562-0.938,0.756s-0.859,0.291-1.416,0.291
						s-1.029-0.097-1.416-0.291c-0.387-0.193-0.7-0.445-0.938-0.756c-0.238-0.312-0.41-0.663-0.515-1.059
						S294.536,291.271,294.536,290.86z M295.661,290.86c0,0.609,0.076,1.088,0.229,1.433c0.153,0.346,0.334,0.603,0.544,0.771
						s0.419,0.271,0.629,0.308c0.209,0.036,0.375,0.055,0.496,0.055s0.286-0.019,0.496-0.055c0.209-0.036,0.419-0.14,0.629-0.308
						c0.21-0.169,0.393-0.426,0.545-0.771c0.153-0.345,0.229-0.822,0.229-1.433c0-0.611-0.077-1.089-0.229-1.435
						c-0.152-0.345-0.335-0.602-0.545-0.771c-0.209-0.169-0.419-0.271-0.629-0.308s-0.375-0.055-0.496-0.055
						s-0.287,0.019-0.496,0.055c-0.21,0.036-0.419,0.139-0.629,0.308s-0.391,0.426-0.544,0.771
						C295.737,289.772,295.661,290.25,295.661,290.86z"/>
					<path fill="#FFFFFF" d="M305.97,287.787h1.271l-2.443,2.371l2.662,3.774h-1.21l-2.166-3.122l-1.041,1.028v2.094h-1.065v-8.47
						h1.065v5.251L305.97,287.787z"/>
					<path fill="#FFFFFF" d="M311.935,291.247c-0.008,0.283,0.04,0.545,0.146,0.787c0.104,0.241,0.262,0.45,0.472,0.629
						c0.21,0.178,0.466,0.315,0.769,0.417s0.647,0.15,1.035,0.15c0.379,0,0.7-0.044,0.962-0.133
						c0.263-0.089,0.477-0.206,0.642-0.351c0.166-0.146,0.286-0.312,0.362-0.502s0.115-0.387,0.115-0.587
						c0-0.26-0.053-0.476-0.157-0.647c-0.104-0.174-0.237-0.313-0.398-0.424c-0.162-0.108-0.345-0.195-0.55-0.26
						c-0.206-0.064-0.406-0.117-0.6-0.157c-0.483-0.105-0.945-0.204-1.386-0.297c-0.439-0.093-0.827-0.225-1.161-0.395
						c-0.335-0.169-0.601-0.396-0.799-0.684c-0.198-0.286-0.296-0.671-0.296-1.155c0-0.396,0.077-0.746,0.229-1.053
						c0.153-0.308,0.371-0.562,0.653-0.763s0.621-0.354,1.016-0.459c0.396-0.105,0.831-0.157,1.308-0.157
						c0.523,0,0.978,0.065,1.36,0.199c0.384,0.133,0.702,0.312,0.956,0.537c0.255,0.228,0.448,0.488,0.581,0.787
						c0.134,0.298,0.211,0.608,0.236,0.933h-1.137c-0.041-0.348-0.145-0.621-0.31-0.823c-0.166-0.201-0.353-0.354-0.562-0.453
						c-0.209-0.102-0.423-0.164-0.642-0.188c-0.218-0.024-0.391-0.037-0.521-0.037c-0.589,0-1.062,0.127-1.421,0.382
						c-0.359,0.254-0.539,0.599-0.539,1.034c0,0.258,0.059,0.466,0.175,0.623c0.117,0.156,0.272,0.285,0.466,0.388
						c0.194,0.101,0.417,0.18,0.672,0.235c0.255,0.057,0.522,0.112,0.806,0.17c0.379,0.071,0.76,0.154,1.143,0.248
						c0.383,0.093,0.73,0.23,1.041,0.417c0.311,0.186,0.562,0.434,0.756,0.743c0.194,0.312,0.291,0.721,0.291,1.229
						c0,0.419-0.065,0.773-0.2,1.063c-0.133,0.291-0.305,0.53-0.514,0.721c-0.21,0.189-0.444,0.337-0.702,0.441
						s-0.51,0.183-0.756,0.229c-0.246,0.049-0.476,0.076-0.689,0.085c-0.215,0.008-0.378,0.012-0.49,0.012
						c-0.299,0-0.645-0.028-1.035-0.085c-0.391-0.056-0.764-0.183-1.119-0.381c-0.354-0.197-0.66-0.492-0.914-0.883
						c-0.254-0.393-0.396-0.922-0.43-1.592h1.137V291.247z"/>
					<path fill="#FFFFFF" d="M319.449,287.787v-1.84h1.065v1.84h1.307v0.75h-1.307v3.908c0,0.112,0.002,0.22,0.006,0.319
						c0.004,0.103,0.024,0.192,0.062,0.272c0.037,0.081,0.099,0.144,0.188,0.188c0.089,0.045,0.218,0.066,0.387,0.066
						c0.113,0,0.227-0.01,0.34-0.03c0.112-0.02,0.222-0.046,0.326-0.078v0.75c-0.169,0.072-0.351,0.131-0.544,0.176
						c-0.192,0.045-0.383,0.066-0.568,0.066c-0.314,0-0.56-0.049-0.732-0.146c-0.173-0.098-0.298-0.221-0.375-0.369
						c-0.077-0.149-0.121-0.312-0.133-0.49c-0.012-0.177-0.018-0.347-0.018-0.508v-4.126h-1.102v-0.75L319.449,287.787
						L319.449,287.787z"/>
					<path fill="#FFFFFF" d="M322.583,290.86c0-0.411,0.052-0.814,0.156-1.211c0.104-0.396,0.276-0.747,0.515-1.059
						c0.238-0.311,0.55-0.562,0.938-0.757c0.389-0.194,0.859-0.29,1.416-0.29c0.558,0,1.028,0.097,1.416,0.29
						c0.389,0.193,0.7,0.446,0.938,0.757c0.237,0.312,0.409,0.663,0.514,1.059c0.104,0.396,0.157,0.8,0.157,1.211
						c0,0.41-0.053,0.813-0.157,1.21c-0.104,0.396-0.276,0.747-0.514,1.059c-0.238,0.311-0.551,0.562-0.938,0.756
						c-0.387,0.194-0.858,0.291-1.416,0.291c-0.557,0-1.028-0.097-1.416-0.291c-0.387-0.193-0.7-0.445-0.938-0.756
						c-0.238-0.312-0.41-0.663-0.515-1.059C322.635,291.675,322.583,291.271,322.583,290.86z M323.708,290.86
						c0,0.609,0.077,1.088,0.229,1.433c0.153,0.346,0.334,0.603,0.544,0.771s0.419,0.271,0.629,0.308
						c0.209,0.036,0.375,0.055,0.496,0.055s0.286-0.019,0.496-0.055c0.209-0.036,0.419-0.14,0.629-0.308
						c0.21-0.169,0.393-0.426,0.545-0.771c0.153-0.345,0.229-0.822,0.229-1.433c0-0.611-0.077-1.089-0.229-1.435
						c-0.152-0.345-0.335-0.602-0.545-0.771c-0.209-0.169-0.419-0.271-0.629-0.308s-0.375-0.055-0.496-0.055
						s-0.287,0.019-0.496,0.055c-0.21,0.036-0.419,0.139-0.629,0.308s-0.391,0.426-0.544,0.771
						C323.785,289.772,323.708,290.25,323.708,290.86z"/>
					<path fill="#FFFFFF" d="M333.461,288.295c-0.363,0.017-0.685,0.063-0.962,0.146c-0.278,0.08-0.518,0.205-0.714,0.375
						c-0.198,0.17-0.355,0.388-0.473,0.653c-0.117,0.268-0.188,0.593-0.211,0.98c-0.008,0.111-0.012,0.222-0.012,0.325
						c0,0.105,0,0.215,0,0.327v2.831h-1.065v-6.146h1.065v1.186h0.023c0.073-0.226,0.181-0.426,0.321-0.599
						c0.142-0.174,0.303-0.319,0.484-0.437c0.182-0.116,0.377-0.208,0.587-0.271c0.21-0.064,0.424-0.102,0.642-0.109l0.314-0.012
						L333.461,288.295L333.461,288.295z"/>
					<path fill="#FFFFFF" d="M339.474,292.155c-0.041,0.218-0.115,0.444-0.224,0.684c-0.109,0.237-0.267,0.455-0.473,0.653
						c-0.206,0.196-0.47,0.36-0.792,0.489c-0.322,0.13-0.722,0.193-1.197,0.193c-0.509,0-0.938-0.068-1.289-0.206
						c-0.352-0.137-0.642-0.312-0.871-0.526c-0.23-0.214-0.41-0.448-0.539-0.708c-0.129-0.258-0.225-0.508-0.284-0.75
						c-0.06-0.241-0.097-0.462-0.109-0.658c-0.012-0.197-0.018-0.346-0.018-0.441c0-0.138,0.008-0.316,0.024-0.539
						c0.016-0.222,0.057-0.455,0.12-0.701c0.064-0.246,0.161-0.494,0.291-0.744s0.305-0.477,0.526-0.678
						c0.222-0.202,0.498-0.365,0.829-0.49s0.734-0.188,1.21-0.188c0.613,0,1.103,0.105,1.47,0.32
						c0.367,0.214,0.649,0.481,0.848,0.805c0.196,0.323,0.331,0.676,0.398,1.059c0.068,0.385,0.11,0.74,0.127,1.071
						c0,0.048,0.002,0.099,0.006,0.151c0.004,0.052,0.007,0.103,0.007,0.15h-4.731c0,0.267,0.037,0.536,0.109,0.812
						c0.072,0.273,0.186,0.521,0.339,0.744c0.152,0.222,0.353,0.404,0.599,0.551c0.246,0.145,0.546,0.218,0.901,0.218
						c0.25,0,0.476-0.034,0.678-0.104c0.201-0.068,0.373-0.161,0.514-0.278c0.142-0.116,0.254-0.252,0.339-0.405
						s0.144-0.313,0.176-0.482L339.474,292.155L339.474,292.155z M338.41,290.351c-0.009-0.2-0.036-0.423-0.086-0.665
						c-0.048-0.241-0.135-0.466-0.26-0.672c-0.125-0.205-0.297-0.377-0.515-0.514c-0.218-0.138-0.5-0.206-0.847-0.206
						c-0.388,0-0.706,0.07-0.956,0.212s-0.446,0.316-0.587,0.526c-0.142,0.21-0.236,0.434-0.284,0.672
						c-0.048,0.236-0.073,0.453-0.073,0.646L338.41,290.351L338.41,290.351z"/>
				</g>
				<g enable-background="new    ">
					<path fill="#FFFFFF" d="M290.597,307.858c-0.008,0.282,0.04,0.545,0.146,0.787c0.104,0.241,0.262,0.45,0.472,0.629
						c0.21,0.178,0.466,0.315,0.769,0.417s0.647,0.15,1.035,0.15c0.379,0,0.7-0.044,0.962-0.133
						c0.263-0.089,0.477-0.206,0.642-0.351c0.166-0.146,0.285-0.312,0.362-0.502c0.076-0.189,0.115-0.387,0.115-0.588
						c0-0.259-0.053-0.475-0.157-0.646c-0.104-0.174-0.237-0.314-0.398-0.424c-0.162-0.108-0.346-0.195-0.55-0.26
						c-0.206-0.064-0.406-0.117-0.6-0.157c-0.483-0.105-0.946-0.204-1.386-0.297c-0.439-0.094-0.827-0.225-1.161-0.395
						c-0.335-0.169-0.601-0.396-0.799-0.684c-0.198-0.286-0.296-0.672-0.296-1.155c0-0.396,0.077-0.746,0.229-1.053
						c0.153-0.308,0.371-0.562,0.653-0.764c0.282-0.201,0.621-0.354,1.016-0.459c0.396-0.104,0.831-0.157,1.308-0.157
						c0.523,0,0.978,0.066,1.36,0.199c0.384,0.133,0.702,0.312,0.956,0.538c0.254,0.228,0.448,0.488,0.581,0.787
						c0.133,0.298,0.211,0.608,0.236,0.932h-1.137c-0.041-0.347-0.145-0.621-0.31-0.822c-0.166-0.201-0.353-0.354-0.562-0.453
						c-0.209-0.103-0.423-0.164-0.642-0.188c-0.218-0.023-0.391-0.037-0.521-0.037c-0.589,0-1.062,0.127-1.421,0.382
						c-0.359,0.255-0.539,0.6-0.539,1.034c0,0.258,0.059,0.466,0.175,0.623c0.117,0.157,0.272,0.286,0.466,0.389
						c0.194,0.101,0.417,0.18,0.672,0.234c0.254,0.058,0.522,0.113,0.806,0.17c0.379,0.072,0.76,0.155,1.143,0.248
						s0.73,0.231,1.041,0.417c0.31,0.187,0.562,0.435,0.756,0.744c0.194,0.312,0.291,0.721,0.291,1.229
						c0,0.419-0.065,0.773-0.2,1.063c-0.133,0.291-0.305,0.53-0.514,0.721c-0.21,0.189-0.444,0.337-0.702,0.441
						s-0.51,0.183-0.756,0.229c-0.246,0.049-0.476,0.075-0.69,0.085c-0.214,0.008-0.377,0.012-0.489,0.012
						c-0.299,0-0.645-0.028-1.035-0.085c-0.392-0.056-0.764-0.183-1.119-0.381c-0.355-0.197-0.66-0.492-0.914-0.883
						c-0.254-0.393-0.396-0.923-0.43-1.593h1.137V307.858z"/>
					<path fill="#FFFFFF" d="M303.17,308.766c-0.041,0.218-0.115,0.444-0.225,0.684c-0.108,0.237-0.266,0.455-0.472,0.653
						c-0.206,0.196-0.47,0.36-0.792,0.489c-0.323,0.129-0.722,0.193-1.198,0.193c-0.508,0-0.938-0.068-1.289-0.206
						c-0.351-0.137-0.641-0.312-0.871-0.526c-0.229-0.214-0.409-0.448-0.538-0.708c-0.13-0.258-0.225-0.508-0.284-0.75
						c-0.061-0.241-0.098-0.462-0.109-0.658c-0.012-0.197-0.018-0.346-0.018-0.441c0-0.138,0.008-0.316,0.023-0.539
						c0.017-0.222,0.058-0.455,0.121-0.701c0.064-0.246,0.161-0.494,0.291-0.744c0.129-0.25,0.304-0.477,0.526-0.678
						c0.222-0.202,0.498-0.365,0.829-0.49s0.733-0.188,1.21-0.188c0.612,0,1.103,0.105,1.47,0.319s0.649,0.482,0.847,0.806
						c0.197,0.322,0.331,0.676,0.399,1.059c0.067,0.384,0.109,0.74,0.127,1.071c0,0.048,0.002,0.099,0.006,0.151
						c0.004,0.052,0.006,0.103,0.006,0.15h-4.73c0,0.267,0.037,0.536,0.108,0.812c0.073,0.273,0.187,0.521,0.339,0.744
						c0.153,0.222,0.354,0.404,0.6,0.551c0.246,0.145,0.546,0.218,0.9,0.218c0.25,0,0.477-0.034,0.679-0.104
						c0.201-0.067,0.373-0.16,0.514-0.277c0.141-0.116,0.254-0.252,0.339-0.405c0.084-0.153,0.144-0.313,0.175-0.483H303.17
						L303.17,308.766z M302.104,306.962c-0.008-0.201-0.036-0.423-0.085-0.665c-0.048-0.242-0.135-0.466-0.26-0.672
						c-0.125-0.205-0.297-0.377-0.515-0.514c-0.219-0.139-0.5-0.206-0.848-0.206c-0.387,0-0.706,0.069-0.956,0.212
						c-0.25,0.142-0.445,0.315-0.587,0.525c-0.141,0.21-0.235,0.435-0.284,0.673c-0.048,0.236-0.072,0.453-0.072,0.646
						L302.104,306.962L302.104,306.962z"/>
					<path fill="#FFFFFF" d="M308.057,304.905c-0.363,0.017-0.684,0.063-0.962,0.146c-0.278,0.08-0.517,0.205-0.714,0.375
						c-0.198,0.169-0.355,0.387-0.472,0.653c-0.117,0.267-0.188,0.593-0.212,0.98c-0.008,0.111-0.012,0.222-0.012,0.325
						c0,0.105,0,0.214,0,0.327v2.831h-1.064v-6.146h1.064v1.187h0.024c0.073-0.227,0.18-0.426,0.32-0.6
						c0.142-0.174,0.304-0.318,0.484-0.436c0.182-0.117,0.377-0.208,0.587-0.272c0.21-0.063,0.424-0.101,0.643-0.108l0.313-0.012
						L308.057,304.905L308.057,304.905z"/>
					<path fill="#FFFFFF" d="M313.091,304.397h1.138l-2.274,6.146h-1.21l-2.275-6.146h1.137l1.743,5.083L313.091,304.397z"/>
					<path fill="#FFFFFF" d="M315.052,302.074h1.063v1.112h-1.063V302.074z M316.115,304.397v6.146h-1.063v-6.146H316.115z"/>
					<path fill="#FFFFFF" d="M323.157,308.354c-0.017,0.186-0.062,0.416-0.139,0.689c-0.077,0.274-0.21,0.54-0.398,0.798
						c-0.189,0.26-0.456,0.48-0.8,0.666c-0.343,0.187-0.789,0.278-1.337,0.278c-0.104,0-0.25-0.009-0.436-0.024
						c-0.187-0.017-0.392-0.057-0.617-0.12c-0.226-0.064-0.454-0.168-0.684-0.31c-0.23-0.141-0.438-0.335-0.623-0.581
						c-0.187-0.245-0.339-0.558-0.46-0.938c-0.121-0.379-0.182-0.844-0.182-1.393c0-0.354,0.04-0.726,0.121-1.112
						c0.081-0.388,0.23-0.739,0.448-1.06c0.218-0.318,0.516-0.581,0.896-0.786c0.38-0.206,0.867-0.309,1.465-0.309
						c0.436,0,0.813,0.059,1.137,0.176c0.322,0.116,0.593,0.275,0.811,0.478c0.219,0.202,0.39,0.433,0.515,0.689
						c0.125,0.259,0.204,0.532,0.235,0.823h-1.017c-0.057-0.34-0.157-0.605-0.302-0.8c-0.146-0.192-0.304-0.335-0.473-0.424
						c-0.169-0.088-0.337-0.143-0.502-0.163c-0.166-0.02-0.292-0.029-0.381-0.029c-0.331,0-0.613,0.065-0.847,0.199
						c-0.234,0.134-0.423,0.312-0.568,0.538c-0.146,0.227-0.25,0.492-0.314,0.8c-0.065,0.307-0.098,0.633-0.098,0.979
						c0,0.349,0.037,0.679,0.109,0.992c0.073,0.314,0.184,0.593,0.333,0.835s0.345,0.434,0.587,0.575
						c0.242,0.141,0.532,0.212,0.871,0.212c0.298,0,0.55-0.057,0.756-0.17c0.206-0.112,0.373-0.252,0.502-0.417
						c0.129-0.166,0.222-0.347,0.278-0.545c0.056-0.197,0.089-0.381,0.097-0.551h1.016V308.354z"/>
					<path fill="#FFFFFF" d="M329.91,308.766c-0.041,0.218-0.115,0.444-0.225,0.684c-0.108,0.237-0.266,0.455-0.472,0.653
						c-0.206,0.196-0.47,0.36-0.792,0.489c-0.323,0.129-0.722,0.193-1.198,0.193c-0.508,0-0.938-0.068-1.289-0.206
						c-0.351-0.137-0.641-0.312-0.871-0.526c-0.229-0.214-0.41-0.448-0.539-0.708c-0.129-0.258-0.224-0.508-0.284-0.75
						c-0.06-0.241-0.097-0.462-0.108-0.658c-0.012-0.197-0.019-0.346-0.019-0.441c0-0.138,0.009-0.316,0.024-0.539
						c0.016-0.222,0.057-0.455,0.121-0.701c0.063-0.246,0.161-0.494,0.291-0.744c0.129-0.25,0.304-0.477,0.525-0.678
						c0.223-0.202,0.498-0.365,0.829-0.49s0.734-0.188,1.21-0.188c0.613,0,1.104,0.105,1.471,0.319s0.648,0.482,0.847,0.806
						c0.197,0.322,0.331,0.676,0.399,1.059c0.067,0.384,0.109,0.74,0.127,1.071c0,0.048,0.002,0.099,0.006,0.151
						c0.004,0.052,0.006,0.103,0.006,0.15h-4.731c0,0.267,0.037,0.536,0.109,0.812c0.073,0.273,0.187,0.521,0.339,0.744
						c0.153,0.222,0.354,0.404,0.6,0.551c0.245,0.145,0.546,0.218,0.9,0.218c0.25,0,0.477-0.034,0.678-0.104
						c0.201-0.067,0.373-0.16,0.515-0.277c0.141-0.116,0.254-0.252,0.339-0.405c0.084-0.153,0.143-0.313,0.175-0.483H329.91
						L329.91,308.766z M328.844,306.962c-0.008-0.201-0.036-0.423-0.085-0.665c-0.048-0.242-0.135-0.466-0.26-0.672
						c-0.125-0.205-0.297-0.377-0.516-0.514c-0.218-0.139-0.5-0.206-0.847-0.206c-0.387,0-0.706,0.069-0.956,0.212
						c-0.25,0.142-0.446,0.315-0.587,0.525s-0.236,0.435-0.284,0.673c-0.048,0.236-0.073,0.453-0.073,0.646L328.844,306.962
						L328.844,306.962z"/>
				</g>
			</g>
		</g>
		<g>
			<rect x="648.096" y="243.96" fill="#DCDCDD" width="101.191" height="93.5"/>
			<g>
				<g enable-background="new    ">
					<path fill="#585A5E" d="M683.123,273.302c0-0.742,0.104-1.393,0.305-1.954c0.201-0.561,0.479-1.027,0.834-1.402
						c0.354-0.375,0.781-0.657,1.275-0.848c0.496-0.189,1.039-0.284,1.627-0.284c0.471,0,0.943,0.072,1.424,0.219
						c0.479,0.145,0.914,0.389,1.301,0.73c0.387,0.343,0.703,0.803,0.949,1.38c0.246,0.576,0.369,1.297,0.369,2.159
						c0,0.734-0.09,1.357-0.268,1.87c-0.178,0.512-0.4,0.934-0.672,1.264c-0.27,0.331-0.566,0.587-0.889,0.77
						c-0.322,0.182-0.633,0.316-0.932,0.404c-0.299,0.09-0.564,0.143-0.799,0.157c-0.234,0.018-0.395,0.024-0.484,0.024
						c-0.088,0-0.252-0.008-0.49-0.024c-0.236-0.016-0.506-0.067-0.805-0.157c-0.299-0.088-0.607-0.224-0.932-0.404
						c-0.322-0.183-0.619-0.438-0.889-0.77c-0.271-0.33-0.492-0.75-0.666-1.258C683.211,274.669,683.123,274.044,683.123,273.302z
						 M684.334,273.302c0,0.339,0.033,0.714,0.104,1.126c0.068,0.411,0.203,0.796,0.406,1.155c0.201,0.358,0.486,0.657,0.857,0.896
						c0.371,0.239,0.859,0.356,1.463,0.356c0.1,0,0.234-0.008,0.412-0.023c0.18-0.017,0.371-0.061,0.58-0.134
						c0.211-0.072,0.424-0.184,0.643-0.332s0.416-0.354,0.594-0.611c0.178-0.257,0.322-0.585,0.436-0.979
						c0.113-0.396,0.17-0.879,0.17-1.452c0-0.5-0.057-0.966-0.17-1.396c-0.113-0.432-0.283-0.806-0.514-1.119
						c-0.23-0.314-0.525-0.562-0.883-0.744c-0.359-0.182-0.781-0.272-1.266-0.272c-0.43,0-0.799,0.067-1.107,0.2
						c-0.311,0.133-0.57,0.305-0.779,0.515c-0.211,0.21-0.377,0.445-0.502,0.708c-0.127,0.263-0.221,0.523-0.285,0.786
						s-0.107,0.511-0.127,0.744C684.346,272.955,684.334,273.149,684.334,273.302z"/>
					<path fill="#585A5E" d="M696.061,271.898c-0.363,0.018-0.684,0.064-0.963,0.146c-0.277,0.08-0.518,0.205-0.713,0.375
						c-0.199,0.169-0.355,0.387-0.475,0.653c-0.117,0.266-0.188,0.593-0.211,0.979c-0.008,0.112-0.012,0.222-0.012,0.326
						c0,0.105,0,0.214,0,0.327v2.831h-1.066v-6.146h1.066v1.187h0.023c0.072-0.227,0.18-0.426,0.32-0.6s0.303-0.318,0.484-0.436
						s0.377-0.208,0.586-0.272c0.211-0.063,0.424-0.101,0.643-0.108l0.314-0.013v0.75H696.061z"/>
					<path fill="#585A5E" d="M702.205,269.068v8.47h-0.99v-0.848h-0.037c-0.049,0.098-0.121,0.211-0.217,0.34
						c-0.1,0.129-0.229,0.248-0.389,0.355c-0.162,0.109-0.357,0.201-0.594,0.278c-0.234,0.077-0.512,0.115-0.834,0.115
						c-0.453,0-0.852-0.081-1.199-0.242c-0.346-0.161-0.637-0.39-0.871-0.685c-0.232-0.294-0.412-0.646-0.537-1.053
						c-0.127-0.407-0.188-0.856-0.188-1.35c0-0.322,0.031-0.676,0.096-1.06c0.064-0.383,0.197-0.742,0.4-1.076
						c0.201-0.335,0.48-0.612,0.84-0.835c0.361-0.222,0.838-0.333,1.434-0.333c0.412,0,0.789,0.068,1.133,0.206
						s0.641,0.415,0.891,0.834v-3.121h1.062V269.068z M697.475,274.451c0,0.581,0.072,1.043,0.213,1.386s0.311,0.602,0.508,0.774
						c0.197,0.174,0.406,0.285,0.623,0.339c0.219,0.053,0.404,0.079,0.557,0.079c0.234,0,0.463-0.048,0.684-0.141
						c0.223-0.093,0.418-0.242,0.588-0.447s0.307-0.474,0.41-0.805c0.105-0.331,0.158-0.733,0.158-1.21
						c0-0.444-0.051-0.825-0.15-1.144c-0.1-0.319-0.24-0.581-0.418-0.787c-0.178-0.205-0.381-0.356-0.611-0.453
						c-0.229-0.097-0.471-0.146-0.721-0.146c-0.258,0-0.498,0.05-0.719,0.146c-0.223,0.097-0.416,0.248-0.582,0.453
						c-0.164,0.206-0.295,0.471-0.393,0.793C697.524,273.612,697.475,274,697.475,274.451z"/>
					<path fill="#585A5E" d="M709.395,275.759c-0.041,0.218-0.115,0.445-0.225,0.684c-0.109,0.237-0.268,0.455-0.473,0.653
						c-0.207,0.197-0.471,0.361-0.793,0.49s-0.723,0.193-1.197,0.193c-0.51,0-0.939-0.068-1.289-0.206
						c-0.352-0.138-0.643-0.312-0.871-0.526s-0.408-0.449-0.537-0.708c-0.129-0.258-0.227-0.508-0.285-0.75
						c-0.061-0.242-0.096-0.462-0.109-0.659c-0.012-0.197-0.018-0.345-0.018-0.44c0-0.139,0.008-0.316,0.023-0.539
						c0.018-0.223,0.057-0.455,0.121-0.701s0.16-0.494,0.289-0.744s0.307-0.477,0.527-0.678c0.221-0.202,0.498-0.365,0.828-0.49
						s0.734-0.188,1.211-0.188c0.613,0,1.102,0.106,1.469,0.32s0.65,0.482,0.85,0.805c0.195,0.323,0.328,0.677,0.398,1.06
						c0.068,0.384,0.109,0.74,0.127,1.071c0,0.048,0.002,0.099,0.006,0.15s0.006,0.104,0.006,0.151h-4.73
						c0,0.266,0.037,0.536,0.107,0.811c0.072,0.275,0.188,0.522,0.34,0.744s0.354,0.405,0.6,0.551s0.547,0.219,0.902,0.219
						c0.25,0,0.475-0.034,0.678-0.104c0.201-0.068,0.373-0.161,0.514-0.278c0.141-0.115,0.254-0.252,0.338-0.404
						c0.086-0.153,0.145-0.314,0.176-0.483L709.395,275.759L709.395,275.759z M708.328,273.955c-0.01-0.201-0.035-0.423-0.086-0.665
						c-0.049-0.242-0.135-0.466-0.26-0.672c-0.125-0.205-0.297-0.377-0.514-0.515c-0.219-0.138-0.5-0.206-0.848-0.206
						c-0.387,0-0.707,0.07-0.957,0.213c-0.25,0.142-0.445,0.315-0.586,0.525s-0.236,0.435-0.283,0.672
						c-0.049,0.237-0.074,0.453-0.074,0.646L708.328,273.955L708.328,273.955z"/>
					<path fill="#585A5E" d="M714.281,271.898c-0.361,0.018-0.684,0.064-0.961,0.146c-0.277,0.08-0.518,0.205-0.715,0.375
						c-0.197,0.169-0.354,0.387-0.471,0.653c-0.119,0.266-0.189,0.593-0.213,0.979c-0.008,0.112-0.014,0.222-0.014,0.326
						c0,0.105,0,0.214,0,0.327v2.831h-1.062v-6.146h1.062v1.187h0.025c0.072-0.227,0.18-0.426,0.32-0.6s0.303-0.318,0.482-0.436
						c0.184-0.117,0.377-0.208,0.588-0.272c0.209-0.063,0.424-0.101,0.643-0.108l0.312-0.013v0.75H714.281z"/>
				</g>
				<g enable-background="new    ">
					<path fill="#585A5E" d="M680.723,285.677c0.146,0,0.346,0.008,0.6,0.024c0.254,0.016,0.531,0.065,0.828,0.149
						c0.299,0.085,0.604,0.214,0.914,0.389c0.309,0.174,0.592,0.415,0.842,0.726c0.25,0.312,0.453,0.704,0.611,1.18
						c0.156,0.478,0.234,1.059,0.234,1.743c0,0.693-0.076,1.28-0.229,1.76c-0.154,0.48-0.355,0.879-0.605,1.192
						c-0.25,0.314-0.533,0.562-0.854,0.738c-0.318,0.177-0.643,0.309-0.975,0.393c-0.33,0.085-0.65,0.136-0.961,0.151
						c-0.312,0.017-0.588,0.023-0.828,0.023h-2.689v-8.47L680.723,285.677L680.723,285.677z M678.752,293.191h1.584
						c1.09,0,1.895-0.264,2.42-0.792c0.523-0.527,0.785-1.356,0.785-2.486c0-0.637-0.082-1.167-0.246-1.591
						c-0.166-0.425-0.385-0.761-0.654-1.012c-0.271-0.25-0.576-0.425-0.92-0.525c-0.342-0.102-0.695-0.15-1.059-0.15h-1.912v6.557
						H678.752z"/>
					<path fill="#585A5E" d="M691.602,292.369c-0.041,0.218-0.115,0.444-0.225,0.684c-0.109,0.237-0.268,0.455-0.473,0.653
						c-0.207,0.197-0.471,0.36-0.793,0.49c-0.322,0.129-0.723,0.192-1.197,0.192c-0.51,0-0.938-0.067-1.289-0.206
						c-0.352-0.137-0.641-0.312-0.869-0.525c-0.23-0.214-0.41-0.449-0.539-0.708s-0.225-0.509-0.285-0.75
						c-0.061-0.242-0.096-0.462-0.107-0.659c-0.014-0.197-0.02-0.345-0.02-0.441c0-0.138,0.008-0.315,0.023-0.539
						c0.018-0.222,0.059-0.455,0.121-0.701c0.064-0.245,0.16-0.493,0.291-0.743c0.129-0.25,0.305-0.478,0.525-0.679
						c0.223-0.201,0.498-0.364,0.828-0.489c0.332-0.125,0.734-0.188,1.211-0.188c0.613,0,1.104,0.106,1.471,0.32
						s0.648,0.481,0.846,0.805s0.332,0.676,0.4,1.06s0.109,0.739,0.127,1.07c0,0.048,0.002,0.1,0.006,0.151s0.006,0.103,0.006,0.15
						h-4.73c0,0.267,0.037,0.536,0.107,0.812c0.074,0.274,0.188,0.521,0.34,0.744c0.152,0.222,0.354,0.405,0.6,0.551
						c0.246,0.145,0.547,0.218,0.9,0.218c0.25,0,0.477-0.034,0.68-0.104c0.201-0.068,0.373-0.161,0.514-0.278
						c0.141-0.116,0.254-0.252,0.34-0.405c0.084-0.152,0.143-0.313,0.174-0.482L691.602,292.369L691.602,292.369z M690.535,290.565
						c-0.008-0.2-0.037-0.423-0.086-0.665c-0.047-0.241-0.135-0.466-0.26-0.672c-0.125-0.205-0.297-0.377-0.514-0.514
						c-0.219-0.138-0.5-0.206-0.848-0.206c-0.387,0-0.705,0.07-0.955,0.212c-0.25,0.143-0.445,0.316-0.588,0.526
						c-0.141,0.21-0.234,0.434-0.283,0.672c-0.049,0.237-0.072,0.453-0.072,0.646L690.535,290.565L690.535,290.565z"/>
					<path fill="#585A5E" d="M694.117,285.677v8.47h-1.064v-8.47H694.117z"/>
					<path fill="#585A5E" d="M695.836,285.677h1.062v1.113h-1.062V285.677z M696.901,288.001v6.146h-1.064v-6.146H696.901z"/>
					<path fill="#585A5E" d="M702.323,288.001h1.137l-2.273,6.146h-1.211l-2.275-6.146h1.139l1.742,5.082L702.323,288.001z"/>
					<path fill="#585A5E" d="M709.752,292.369c-0.041,0.218-0.115,0.444-0.227,0.684c-0.107,0.237-0.266,0.455-0.471,0.653
						c-0.207,0.197-0.471,0.36-0.793,0.49c-0.322,0.129-0.723,0.192-1.199,0.192c-0.508,0-0.938-0.067-1.287-0.206
						c-0.352-0.137-0.643-0.312-0.871-0.525s-0.41-0.449-0.539-0.708s-0.225-0.509-0.283-0.75c-0.061-0.242-0.098-0.462-0.109-0.659
						s-0.018-0.345-0.018-0.441c0-0.138,0.008-0.315,0.023-0.539c0.018-0.222,0.057-0.455,0.121-0.701
						c0.062-0.245,0.16-0.493,0.289-0.743s0.305-0.478,0.527-0.679c0.221-0.201,0.498-0.364,0.828-0.489s0.734-0.188,1.209-0.188
						c0.613,0,1.104,0.106,1.471,0.32s0.65,0.481,0.848,0.805s0.33,0.676,0.4,1.06c0.066,0.384,0.109,0.739,0.127,1.07
						c0,0.048,0.002,0.1,0.006,0.151s0.006,0.103,0.006,0.15h-4.732c0,0.267,0.037,0.536,0.109,0.812s0.186,0.521,0.34,0.744
						c0.152,0.222,0.354,0.405,0.6,0.551c0.244,0.145,0.547,0.218,0.9,0.218c0.25,0,0.477-0.034,0.678-0.104
						c0.201-0.068,0.373-0.161,0.516-0.278c0.141-0.116,0.254-0.252,0.338-0.405c0.086-0.152,0.145-0.313,0.176-0.482
						L709.752,292.369L709.752,292.369z M708.686,290.565c-0.008-0.2-0.035-0.423-0.084-0.665c-0.049-0.241-0.135-0.466-0.26-0.672
						c-0.125-0.205-0.297-0.377-0.516-0.514c-0.219-0.138-0.5-0.206-0.848-0.206c-0.387,0-0.705,0.07-0.955,0.212
						c-0.25,0.143-0.447,0.316-0.588,0.526s-0.236,0.434-0.283,0.672c-0.049,0.237-0.074,0.453-0.074,0.646L708.686,290.565
						L708.686,290.565z"/>
					<path fill="#585A5E" d="M714.639,288.509c-0.363,0.017-0.686,0.064-0.961,0.146c-0.279,0.079-0.52,0.204-0.715,0.375
						c-0.197,0.169-0.355,0.387-0.473,0.652c-0.117,0.268-0.188,0.593-0.213,0.98c-0.008,0.111-0.012,0.222-0.012,0.326
						s0,0.214,0,0.326v2.831h-1.064v-6.146h1.064v1.186h0.023c0.072-0.226,0.18-0.426,0.32-0.599
						c0.143-0.174,0.303-0.319,0.484-0.436c0.182-0.117,0.377-0.208,0.588-0.272c0.209-0.064,0.424-0.101,0.641-0.109l0.314-0.012
						v0.75H714.639z"/>
					<path fill="#585A5E" d="M716.199,295.587c0.16,0.024,0.275,0.041,0.35,0.049c0.07,0.008,0.131,0.012,0.18,0.012
						c0.15,0,0.279-0.027,0.383-0.084c0.105-0.057,0.193-0.134,0.264-0.229c0.072-0.096,0.131-0.208,0.176-0.332
						c0.043-0.126,0.09-0.257,0.139-0.395l0.146-0.46l-2.65-6.146h1.27l1.965,4.973l1.643-4.973h1.064l-2.443,6.872
						c-0.049,0.146-0.105,0.309-0.17,0.49c-0.064,0.181-0.156,0.352-0.271,0.509c-0.117,0.157-0.27,0.29-0.455,0.398
						s-0.424,0.163-0.713,0.163c-0.17,0-0.33-0.004-0.479-0.013c-0.148-0.008-0.281-0.023-0.395-0.048v-0.787H716.199z"/>
				</g>
				<g enable-background="new    ">
					<path fill="#585A5E" d="M679.682,308.07c-0.008,0.283,0.041,0.545,0.146,0.787c0.104,0.241,0.262,0.45,0.471,0.629
						c0.211,0.178,0.467,0.315,0.77,0.417s0.646,0.15,1.035,0.15c0.379,0,0.699-0.044,0.961-0.133s0.477-0.206,0.641-0.351
						c0.166-0.146,0.287-0.312,0.363-0.502c0.076-0.19,0.115-0.387,0.115-0.587c0-0.26-0.053-0.476-0.156-0.647
						c-0.104-0.174-0.238-0.313-0.398-0.424c-0.162-0.108-0.346-0.195-0.553-0.26c-0.205-0.064-0.404-0.117-0.598-0.157
						c-0.484-0.105-0.947-0.204-1.387-0.297c-0.439-0.094-0.826-0.225-1.16-0.395c-0.336-0.169-0.602-0.396-0.799-0.684
						c-0.199-0.286-0.297-0.671-0.297-1.155c0-0.396,0.076-0.746,0.229-1.053c0.154-0.308,0.371-0.562,0.654-0.764
						c0.281-0.201,0.621-0.354,1.016-0.459c0.396-0.104,0.832-0.157,1.307-0.157c0.525,0,0.979,0.066,1.361,0.199
						s0.703,0.312,0.957,0.538c0.254,0.228,0.447,0.488,0.58,0.787c0.133,0.298,0.211,0.608,0.236,0.932h-1.139
						c-0.041-0.347-0.145-0.62-0.309-0.822c-0.166-0.201-0.354-0.354-0.562-0.453c-0.211-0.103-0.424-0.164-0.643-0.188
						c-0.217-0.023-0.391-0.037-0.52-0.037c-0.59,0-1.062,0.127-1.422,0.383c-0.359,0.254-0.539,0.599-0.539,1.033
						c0,0.259,0.059,0.467,0.176,0.623c0.117,0.157,0.271,0.286,0.467,0.389c0.193,0.101,0.416,0.18,0.672,0.234
						c0.254,0.058,0.521,0.113,0.805,0.17c0.379,0.072,0.762,0.155,1.145,0.248c0.383,0.094,0.729,0.231,1.041,0.418
						c0.309,0.186,0.561,0.434,0.756,0.743c0.193,0.311,0.289,0.721,0.289,1.229c0,0.419-0.066,0.773-0.199,1.063
						c-0.133,0.291-0.305,0.53-0.514,0.721c-0.211,0.189-0.443,0.337-0.701,0.441c-0.26,0.104-0.512,0.183-0.758,0.229
						c-0.246,0.049-0.477,0.076-0.689,0.085c-0.213,0.008-0.377,0.012-0.49,0.012c-0.299,0-0.643-0.028-1.033-0.085
						c-0.393-0.056-0.766-0.183-1.119-0.381c-0.355-0.197-0.66-0.492-0.914-0.883c-0.254-0.393-0.396-0.922-0.43-1.592h1.137V308.07
						z"/>
					<path fill="#585A5E" d="M687.037,312.196c0.16,0.023,0.275,0.041,0.35,0.049c0.072,0.008,0.133,0.012,0.18,0.012
						c0.152,0,0.281-0.027,0.385-0.084s0.191-0.134,0.264-0.229c0.072-0.097,0.131-0.208,0.174-0.332
						c0.045-0.126,0.09-0.257,0.139-0.395l0.146-0.46l-2.65-6.146h1.271l1.965,4.973l1.641-4.973h1.064l-2.443,6.872
						c-0.049,0.146-0.105,0.309-0.17,0.489c-0.066,0.182-0.154,0.353-0.271,0.51c-0.117,0.156-0.27,0.29-0.453,0.398
						c-0.188,0.108-0.424,0.163-0.715,0.163c-0.17,0-0.328-0.004-0.479-0.013c-0.148-0.008-0.279-0.023-0.393-0.048v-0.787H687.037z
						"/>
					<path fill="#585A5E" d="M693.463,308.929c0.008,0.242,0.061,0.447,0.154,0.617c0.098,0.169,0.225,0.308,0.379,0.411
						c0.156,0.105,0.332,0.18,0.527,0.225c0.197,0.045,0.396,0.066,0.596,0.066c0.354,0,0.623-0.049,0.816-0.146
						c0.191-0.098,0.332-0.21,0.42-0.34c0.088-0.129,0.139-0.258,0.15-0.388c0.012-0.129,0.018-0.226,0.018-0.29
						c0-0.097-0.01-0.19-0.029-0.284c-0.02-0.093-0.074-0.182-0.164-0.267c-0.088-0.084-0.217-0.165-0.391-0.241
						c-0.172-0.077-0.406-0.15-0.703-0.225l-0.648-0.146c-0.258-0.057-0.5-0.121-0.732-0.193s-0.438-0.173-0.613-0.303
						c-0.176-0.129-0.316-0.297-0.42-0.503c-0.105-0.205-0.156-0.47-0.156-0.792c0-0.339,0.066-0.623,0.205-0.854
						c0.137-0.229,0.318-0.411,0.545-0.544c0.225-0.135,0.475-0.229,0.75-0.284c0.273-0.058,0.553-0.085,0.834-0.085
						c0.525,0,0.945,0.063,1.266,0.192c0.318,0.129,0.566,0.289,0.744,0.479c0.178,0.188,0.299,0.391,0.361,0.604
						c0.064,0.213,0.105,0.405,0.121,0.575h-1.016c-0.008-0.089-0.031-0.196-0.066-0.321c-0.037-0.125-0.105-0.245-0.207-0.361
						c-0.102-0.117-0.244-0.216-0.432-0.297c-0.186-0.08-0.434-0.121-0.742-0.121c-0.031,0-0.117,0.004-0.254,0.012
						c-0.139,0.009-0.281,0.043-0.432,0.104c-0.152,0.062-0.285,0.157-0.408,0.29c-0.121,0.134-0.182,0.32-0.182,0.562
						c0,0.218,0.047,0.393,0.139,0.521c0.094,0.129,0.219,0.229,0.377,0.303c0.158,0.072,0.34,0.131,0.547,0.176
						c0.205,0.044,0.418,0.09,0.637,0.14c0.316,0.071,0.607,0.146,0.873,0.224c0.268,0.077,0.5,0.178,0.699,0.303
						c0.197,0.125,0.352,0.288,0.461,0.49c0.109,0.201,0.164,0.46,0.164,0.774c0,0.321-0.057,0.595-0.17,0.815
						s-0.254,0.407-0.424,0.557c-0.168,0.15-0.355,0.266-0.562,0.346c-0.205,0.081-0.402,0.142-0.592,0.182
						s-0.355,0.064-0.496,0.072c-0.143,0.009-0.236,0.013-0.285,0.013c-0.459,0-0.857-0.055-1.191-0.163s-0.615-0.259-0.84-0.448
						c-0.227-0.188-0.396-0.408-0.51-0.658s-0.174-0.518-0.182-0.799L693.463,308.929L693.463,308.929z"/>
					<path fill="#585A5E" d="M699.344,304.61v-1.841h1.064v1.841h1.307v0.75h-1.307v3.908c0,0.112,0.002,0.22,0.006,0.319
						c0.004,0.103,0.023,0.192,0.061,0.272c0.037,0.081,0.1,0.144,0.188,0.188c0.09,0.045,0.219,0.066,0.389,0.066
						c0.111,0,0.227-0.01,0.338-0.03c0.113-0.02,0.223-0.046,0.328-0.078v0.75c-0.17,0.072-0.352,0.131-0.545,0.176
						s-0.385,0.066-0.568,0.066c-0.314,0-0.559-0.049-0.732-0.146c-0.174-0.098-0.299-0.221-0.375-0.369
						c-0.076-0.149-0.119-0.312-0.133-0.49c-0.012-0.177-0.02-0.347-0.02-0.508v-4.126h-1.102v-0.75L699.344,304.61L699.344,304.61z
						"/>
					<path fill="#585A5E" d="M708.274,308.979c-0.039,0.218-0.115,0.444-0.223,0.684c-0.109,0.237-0.268,0.455-0.475,0.653
						c-0.205,0.196-0.469,0.36-0.791,0.489c-0.322,0.13-0.723,0.193-1.197,0.193c-0.51,0-0.939-0.068-1.289-0.206
						c-0.352-0.137-0.643-0.312-0.871-0.526c-0.23-0.214-0.41-0.448-0.539-0.707s-0.225-0.509-0.283-0.75
						c-0.061-0.242-0.098-0.463-0.109-0.659c-0.012-0.197-0.018-0.346-0.018-0.441c0-0.138,0.008-0.315,0.023-0.539
						c0.016-0.222,0.057-0.455,0.119-0.701c0.064-0.246,0.162-0.494,0.291-0.744c0.131-0.25,0.307-0.477,0.527-0.678
						c0.221-0.202,0.498-0.365,0.828-0.49s0.732-0.188,1.209-0.188c0.613,0,1.104,0.105,1.471,0.319
						c0.367,0.215,0.65,0.482,0.85,0.806c0.195,0.322,0.33,0.676,0.396,1.059c0.068,0.385,0.111,0.74,0.127,1.071
						c0,0.048,0.002,0.099,0.006,0.151c0.004,0.052,0.006,0.103,0.006,0.15h-4.729c0,0.267,0.037,0.536,0.109,0.812
						c0.07,0.274,0.186,0.521,0.338,0.744c0.152,0.222,0.354,0.404,0.6,0.551c0.246,0.145,0.547,0.218,0.9,0.218
						c0.25,0,0.477-0.034,0.678-0.104c0.201-0.068,0.373-0.161,0.516-0.278c0.141-0.116,0.254-0.252,0.338-0.405
						c0.086-0.153,0.145-0.313,0.176-0.482L708.274,308.979L708.274,308.979z M707.207,307.175
						c-0.008-0.201-0.033-0.423-0.084-0.665c-0.049-0.241-0.135-0.466-0.26-0.672c-0.125-0.205-0.297-0.377-0.516-0.514
						c-0.217-0.139-0.5-0.206-0.846-0.206c-0.389,0-0.707,0.069-0.957,0.212c-0.25,0.142-0.445,0.315-0.586,0.525
						c-0.143,0.21-0.236,0.435-0.285,0.673c-0.047,0.236-0.072,0.453-0.072,0.646L707.207,307.175L707.207,307.175z"/>
					<path fill="#585A5E" d="M710.789,304.61v0.835l-0.012,0.071c0.08-0.178,0.189-0.337,0.326-0.478
						c0.137-0.143,0.291-0.264,0.461-0.363c0.168-0.1,0.348-0.178,0.537-0.229c0.189-0.053,0.381-0.078,0.576-0.078
						c0.266,0,0.5,0.038,0.701,0.114s0.373,0.178,0.514,0.303c0.141,0.126,0.256,0.267,0.346,0.424
						c0.088,0.157,0.152,0.315,0.193,0.478c0.057-0.12,0.141-0.256,0.254-0.404s0.254-0.292,0.424-0.431
						c0.17-0.137,0.373-0.252,0.611-0.345c0.236-0.093,0.518-0.139,0.84-0.139c0.469,0,0.836,0.095,1.102,0.283
						c0.268,0.189,0.465,0.413,0.594,0.673c0.129,0.258,0.209,0.523,0.234,0.798c0.029,0.274,0.043,0.496,0.043,0.666v3.969h-1.062
						v-3.896c0-0.161-0.012-0.343-0.031-0.544c-0.02-0.202-0.07-0.393-0.15-0.569c-0.082-0.177-0.199-0.326-0.357-0.447
						c-0.156-0.121-0.373-0.182-0.646-0.182c-0.178,0-0.361,0.027-0.557,0.085c-0.193,0.057-0.369,0.159-0.527,0.309
						c-0.156,0.149-0.285,0.352-0.387,0.604c-0.102,0.254-0.15,0.579-0.15,0.975v3.666H713.6v-3.884
						c0-0.226-0.018-0.444-0.049-0.653c-0.031-0.21-0.094-0.396-0.182-0.557c-0.09-0.161-0.211-0.293-0.361-0.395
						c-0.154-0.101-0.354-0.15-0.596-0.15c-0.217,0-0.426,0.047-0.623,0.14c-0.195,0.093-0.369,0.224-0.52,0.393
						c-0.15,0.171-0.266,0.377-0.352,0.624c-0.084,0.245-0.127,0.519-0.127,0.816v3.666h-1.064v-6.146L710.789,304.61
						L710.789,304.61z"/>
				</g>
			</g>
		</g>
		<g>
			<g>
				<g>
					<g enable-background="new    ">
						<path fill="#585A5E" d="M111.268,336.271c-0.699-0.779-1.049-1.784-1.049-3.018c0-1.23,0.35-2.236,1.049-3.016
							c0.7-0.779,1.578-1.168,2.634-1.168c0.897,0,1.633,0.239,2.204,0.719c0.572,0.479,0.938,1.134,1.097,1.96h-1.347
							c-0.353-0.959-1.003-1.438-1.954-1.438c-0.705,0-1.263,0.274-1.677,0.824c-0.414,0.551-0.62,1.257-0.62,2.118
							c0,0.863,0.207,1.569,0.62,2.119s0.972,0.825,1.677,0.825c0.95,0,1.602-0.484,1.954-1.452h1.347
							c-0.158,0.836-0.524,1.493-1.097,1.974c-0.571,0.479-1.307,0.72-2.204,0.72C112.846,337.439,111.969,337.049,111.268,336.271z
							"/>
						<path fill="#585A5E" d="M119.776,328.727v8.579h-1.319v-8.579H119.776z"/>
						<path fill="#585A5E" d="M122.647,329.11c0.163,0.158,0.244,0.348,0.244,0.566c0,0.222-0.082,0.409-0.244,0.568
							c-0.163,0.158-0.354,0.237-0.574,0.237c-0.22,0-0.411-0.079-0.573-0.237c-0.163-0.159-0.244-0.348-0.244-0.568
							c0-0.22,0.081-0.408,0.244-0.566s0.354-0.237,0.573-0.237C122.293,328.872,122.484,328.951,122.647,329.11z M122.732,331.446
							v5.859h-1.319v-5.859H122.732z"/>
						<path fill="#585A5E" d="M127.986,335.485h1.215c-0.105,0.599-0.372,1.072-0.799,1.425s-0.982,0.528-1.67,0.528
							c-0.817,0-1.484-0.281-2-0.846c-0.515-0.562-0.771-1.298-0.771-2.204c0-0.88,0.259-1.611,0.778-2.197
							c0.52-0.585,1.176-0.878,1.968-0.878c0.81,0,1.437,0.263,1.881,0.785c0.443,0.523,0.667,1.227,0.667,2.105v0.475h-4
							c0.018,0.512,0.161,0.913,0.429,1.208c0.269,0.296,0.618,0.442,1.049,0.442C127.428,336.33,127.845,336.048,127.986,335.485z
							 M126.719,332.423c-0.37,0-0.68,0.112-0.931,0.336c-0.25,0.226-0.416,0.544-0.495,0.957h2.652
							c-0.009-0.378-0.118-0.688-0.33-0.931C127.406,332.544,127.106,332.423,126.719,332.423z"/>
						<path fill="#585A5E" d="M130.469,337.306v-5.859h1.32v0.554c0.396-0.457,0.924-0.687,1.584-0.687
							c0.65,0,1.159,0.197,1.524,0.595c0.365,0.396,0.548,0.924,0.548,1.584v3.813h-1.319v-3.591c0-0.378-0.092-0.673-0.277-0.884
							c-0.185-0.211-0.462-0.317-0.832-0.317c-0.291,0-0.55,0.087-0.779,0.259c-0.229,0.172-0.379,0.397-0.448,0.68v3.854H130.469z"
							/>
						<path fill="#585A5E" d="M137.305,335.722v-3.182h-0.924v-1.095h0.924v-1.571h1.32v1.571h1.319v1.095h-1.319v3.036
							c0,0.458,0.232,0.687,0.7,0.687c0.281,0,0.531-0.078,0.752-0.236v1.201c-0.238,0.141-0.568,0.211-0.99,0.211
							c-0.545,0-0.979-0.146-1.3-0.437C137.466,336.713,137.305,336.286,137.305,335.722z"/>
					</g>
				</g>
				<g id="hVCAm4_11_">
					<g>
						<path fill="#585A5E" d="M102.737,310.399c0.151-0.213,0.444-0.433,0.438-0.641c-0.249-5.545,2.992-7.986,7.875-9.255
							c1.987-0.516,3.897-1.515,5.688-2.562c4.67-2.733,5.23-4.906,2.691-9.551c-2.777-5.078-2.292-10.46-1.207-15.787
							c0.247-1.214,1.589-2.46,2.744-3.185c3.265-2.043,9.669-1.34,12.621,1.114c2.58,2.146,2.085,5.188,2.549,8.022
							c0.731,4.474-0.407,8.446-2.451,12.293c-1.133,2.133-0.485,3.904,1.199,5.309c1.24,1.03,2.629,1.927,4.06,2.672
							c1.442,0.752,2.975,1.442,4.547,1.812c4.621,1.084,7.544,3.562,7.78,8.586c0.029,0.582,0.438,1.146,0.672,1.719
							c0,0.363,0,0.729,0,1.092c-13.1,12.721-33.544,14.994-49.203,0C102.737,311.493,102.737,310.947,102.737,310.399z"/>
					</g>
				</g>
			</g>
			<path fill="none" stroke="#585A5E" stroke-width="1.363" stroke-miterlimit="10" d="M161.014,288.367
				c0,9.077-3.535,17.328-9.304,23.452c-6.238,6.62-15.087,10.755-24.902,10.755c-9.445,0-17.997-3.83-24.187-10.021
				c-6.19-6.188-10.021-14.74-10.021-24.187c0-18.894,15.314-34.206,34.206-34.206C145.701,254.161,161.014,269.474,161.014,288.367
				z"/>
		</g>
		<g>
			<g>
				<g>
					
						<line fill="none" stroke="#585A5E" stroke-width="1.1" stroke-miterlimit="10" x1="160.345" y1="285.959" x2="254.655" y2="285.959"/>
					<g>
						<polygon fill="#585A5E" points="253.838,288.756 258.681,285.959 253.838,283.161 						"/>
					</g>
				</g>
			</g>
			<g>
				<g>
					
						<line fill="none" stroke="#585A5E" stroke-width="1.1" stroke-miterlimit="10" x1="258.681" y1="295.46" x2="164.372" y2="295.46"/>
					<g>
						<polygon fill="#585A5E" points="165.189,292.662 160.345,295.46 165.189,298.256 						"/>
					</g>
				</g>
			</g>
		</g>
		<g>
			<g>
				<g>
					
						<line fill="none" stroke="#585A5E" stroke-width="1.1" stroke-miterlimit="10" x1="359.219" y1="290.71" x2="421.155" y2="290.71"/>
					<g>
						<polygon fill="#585A5E" points="420.337,293.507 425.18,290.71 420.337,287.912 						"/>
					</g>
				</g>
			</g>
		</g>
		<g>
			<g enable-background="new    ">
				<path fill="#585A5E" d="M593.713,280.46h-1.609v2.771h-1.258v-7.43h2.867c0.781,0,1.4,0.202,1.857,0.605
					c0.455,0.402,0.684,0.979,0.684,1.729c0,0.742-0.229,1.314-0.684,1.718C595.114,280.258,594.494,280.46,593.713,280.46z
					 M595.008,278.136c0-0.38-0.113-0.682-0.338-0.908c-0.229-0.226-0.555-0.339-0.98-0.339h-1.586v2.48h1.586
					c0.42,0,0.744-0.112,0.975-0.338C594.893,278.805,595.008,278.508,595.008,278.136z"/>
				<path fill="#585A5E" d="M601.713,277.858v5.372h-1.211v-0.508c-0.363,0.419-0.844,0.629-1.439,0.629
					c-0.598,0-1.061-0.182-1.393-0.545c-0.33-0.361-0.496-0.847-0.496-1.452v-3.496h1.211v3.291c0,0.734,0.334,1.102,1.004,1.102
					c0.266,0,0.502-0.078,0.707-0.235c0.207-0.156,0.342-0.364,0.406-0.623v-3.532h1.211V277.858z"/>
				<path fill="#585A5E" d="M604.422,275.365v7.864h-1.209v-7.864H604.422z"/>
				<path fill="#585A5E" d="M607.133,275.365v7.864h-1.211v-7.864H607.133z"/>
				<path fill="#585A5E" d="M616.871,276.762c0.646,0.724,0.971,1.641,0.971,2.753c0,1.113-0.324,2.031-0.971,2.753
					c-0.645,0.723-1.467,1.083-2.469,1.083c-1,0-1.82-0.36-2.461-1.083c-0.643-0.722-0.963-1.64-0.963-2.753
					c0-1.112,0.32-2.029,0.963-2.753c0.643-0.722,1.461-1.083,2.461-1.083C615.405,275.679,616.229,276.041,616.871,276.762z
					 M615.971,281.464c0.398-0.508,0.6-1.157,0.6-1.948c0-0.79-0.199-1.438-0.6-1.947c-0.398-0.509-0.92-0.763-1.566-0.763
					c-0.645,0-1.166,0.252-1.561,0.756c-0.396,0.504-0.594,1.155-0.594,1.954s0.197,1.45,0.594,1.954
					c0.395,0.505,0.916,0.757,1.561,0.757C615.051,282.226,615.573,281.971,615.971,281.464z"/>
				<path fill="#585A5E" d="M622.016,277.834v1.246c-0.17-0.121-0.408-0.183-0.715-0.183c-0.258,0-0.488,0.075-0.689,0.225
					c-0.201,0.148-0.33,0.36-0.387,0.636v3.473h-1.211v-5.372h1.211v0.558c0.104-0.202,0.266-0.365,0.482-0.49
					c0.219-0.125,0.455-0.188,0.715-0.188C621.703,277.737,621.903,277.769,622.016,277.834z"/>
				<path fill="#585A5E" d="M626.614,283.23v-0.46c-0.129,0.161-0.318,0.3-0.568,0.411c-0.25,0.113-0.518,0.17-0.799,0.17
					c-0.768,0-1.373-0.269-1.82-0.805s-0.672-1.204-0.672-2.003c0-0.798,0.225-1.466,0.672-2.002
					c0.447-0.537,1.055-0.805,1.82-0.805c0.281,0,0.549,0.057,0.799,0.169s0.439,0.25,0.568,0.411v-2.952h1.209v7.864
					L626.614,283.23L626.614,283.23z M626.614,281.56v-2.031c-0.105-0.21-0.262-0.383-0.473-0.516
					c-0.209-0.133-0.439-0.199-0.689-0.199c-0.459,0-0.822,0.161-1.088,0.483c-0.268,0.323-0.4,0.738-0.4,1.246
					c0,0.509,0.135,0.924,0.4,1.247c0.266,0.322,0.629,0.482,1.088,0.482c0.25,0,0.48-0.065,0.689-0.198
					C626.352,281.941,626.508,281.77,626.614,281.56z"/>
				<path fill="#585A5E" d="M632.639,281.56h1.113c-0.098,0.55-0.342,0.984-0.732,1.308c-0.391,0.322-0.9,0.483-1.529,0.483
					c-0.75,0-1.361-0.258-1.834-0.773c-0.473-0.518-0.707-1.189-0.707-2.021c0-0.807,0.236-1.479,0.713-2.015
					c0.477-0.537,1.078-0.805,1.805-0.805c0.74,0,1.314,0.239,1.723,0.72c0.408,0.479,0.611,1.123,0.611,1.93v0.437h-3.666
					c0.016,0.468,0.146,0.837,0.393,1.106c0.248,0.271,0.568,0.405,0.963,0.405C632.127,282.335,632.51,282.077,632.639,281.56z
					 M631.477,278.754c-0.338,0-0.623,0.103-0.854,0.309c-0.229,0.205-0.381,0.498-0.453,0.877h2.434
					c-0.01-0.347-0.109-0.631-0.303-0.854C632.108,278.864,631.83,278.754,631.477,278.754z"/>
				<path fill="#585A5E" d="M637.912,277.834v1.246c-0.168-0.121-0.404-0.183-0.713-0.183c-0.258,0-0.486,0.075-0.689,0.225
					c-0.201,0.148-0.33,0.36-0.389,0.636v3.473h-1.209v-5.372h1.209v0.558c0.105-0.202,0.27-0.365,0.484-0.49
					c0.219-0.125,0.457-0.188,0.715-0.188C637.604,277.737,637.801,277.769,637.912,277.834z"/>
			</g>
		</g>
		<g>
			<g>
				<g>
					
						<line fill="none" stroke="#585A5E" stroke-width="1.1" stroke-miterlimit="10" x1="582.914" y1="288.287" x2="643.85" y2="288.287"/>
					<g>
						<polygon fill="#585A5E" points="643.031,291.084 647.877,288.287 643.031,285.489 						"/>
					</g>
				</g>
			</g>
		</g>
		<g>
			<g>
				<g enable-background="new    ">
					<path fill="#585A5E" d="M191.992,278.015h-0.896v3.014h-1.258v-7.431h2.868c0.781,0,1.398,0.192,1.852,0.575
						c0.452,0.383,0.677,0.934,0.677,1.651c0,0.612-0.167,1.1-0.502,1.458s-0.801,0.587-1.396,0.684l2.153,3.062h-1.428
						L191.992,278.015z M191.095,274.687v2.275h1.585c0.411,0,0.732-0.103,0.962-0.309s0.345-0.482,0.345-0.829
						c0-0.348-0.114-0.623-0.345-0.829c-0.229-0.205-0.551-0.31-0.962-0.31L191.095,274.687L191.095,274.687z"/>
					<path fill="#585A5E" d="M199.796,279.358h1.113c-0.098,0.55-0.342,0.984-0.732,1.308c-0.392,0.323-0.901,0.483-1.531,0.483
						c-0.75,0-1.36-0.258-1.833-0.773c-0.472-0.517-0.708-1.189-0.708-2.021c0-0.807,0.238-1.479,0.714-2.015
						c0.477-0.537,1.077-0.805,1.804-0.805c0.741,0,1.315,0.239,1.724,0.72c0.407,0.48,0.611,1.123,0.611,1.93v0.437h-3.666
						c0.016,0.468,0.146,0.837,0.393,1.106c0.246,0.271,0.567,0.405,0.962,0.405C199.284,280.133,199.667,279.875,199.796,279.358z
						 M198.635,276.552c-0.338,0-0.623,0.104-0.854,0.31c-0.229,0.204-0.381,0.497-0.453,0.877h2.432
						c-0.008-0.348-0.109-0.632-0.303-0.854C199.263,276.662,198.989,276.552,198.635,276.552z"/>
					<path fill="#585A5E" d="M205.555,283.085v-2.517c-0.129,0.16-0.319,0.299-0.568,0.41c-0.25,0.113-0.517,0.17-0.799,0.17
						c-0.758,0-1.362-0.271-1.814-0.815c-0.452-0.545-0.679-1.208-0.679-1.991c0-0.782,0.227-1.445,0.679-1.99
						c0.452-0.544,1.057-0.815,1.814-0.815c0.282,0,0.548,0.057,0.799,0.169c0.25,0.113,0.439,0.25,0.568,0.411v-0.459h1.21v7.429
						L205.555,283.085L205.555,283.085z M205.555,279.358v-2.031c-0.104-0.21-0.262-0.382-0.472-0.516
						c-0.21-0.133-0.44-0.198-0.69-0.198c-0.459,0-0.823,0.16-1.089,0.482c-0.266,0.323-0.399,0.738-0.399,1.246
						c0,0.509,0.134,0.924,0.399,1.247c0.266,0.322,0.629,0.483,1.089,0.483c0.25,0,0.48-0.066,0.69-0.199
						C205.294,279.739,205.451,279.568,205.555,279.358z"/>
					<path fill="#585A5E" d="M212.73,275.656v5.372h-1.21v-0.509c-0.363,0.419-0.843,0.629-1.438,0.629
						c-0.598,0-1.062-0.182-1.393-0.545c-0.331-0.361-0.496-0.847-0.496-1.451v-3.496h1.21v3.291c0,0.733,0.334,1.101,1.004,1.101
						c0.267,0,0.503-0.078,0.708-0.235c0.206-0.156,0.342-0.364,0.405-0.623v-3.532L212.73,275.656L212.73,275.656z"/>
					<path fill="#585A5E" d="M217.547,279.358h1.113c-0.098,0.55-0.342,0.984-0.732,1.308c-0.392,0.323-0.901,0.483-1.531,0.483
						c-0.75,0-1.36-0.258-1.833-0.773c-0.472-0.517-0.708-1.189-0.708-2.021c0-0.807,0.238-1.479,0.714-2.015
						c0.477-0.537,1.077-0.805,1.804-0.805c0.741,0,1.315,0.239,1.724,0.72c0.407,0.48,0.611,1.123,0.611,1.93v0.437h-3.666
						c0.016,0.468,0.146,0.837,0.393,1.106c0.246,0.271,0.567,0.405,0.962,0.405C217.034,280.133,217.418,279.875,217.547,279.358z
						 M216.385,276.552c-0.338,0-0.623,0.104-0.854,0.31c-0.229,0.204-0.381,0.497-0.453,0.877h2.432
						c-0.008-0.348-0.109-0.632-0.303-0.854C217.013,276.662,216.739,276.552,216.385,276.552z"/>
					<path fill="#585A5E" d="M219.446,279.479h1.234c0.137,0.452,0.492,0.679,1.065,0.679c0.281,0,0.506-0.056,0.671-0.163
						c0.165-0.109,0.248-0.27,0.248-0.479c0-0.145-0.048-0.26-0.146-0.345c-0.097-0.085-0.258-0.155-0.483-0.212l-1.113-0.266
						c-0.887-0.211-1.331-0.702-1.331-1.478c0-0.484,0.19-0.885,0.575-1.204c0.383-0.317,0.869-0.478,1.458-0.478
						c0.612,0,1.101,0.139,1.464,0.417c0.363,0.277,0.593,0.668,0.689,1.168h-1.186c-0.121-0.396-0.448-0.593-0.98-0.593
						c-0.233,0-0.436,0.053-0.604,0.156c-0.169,0.104-0.254,0.258-0.254,0.46c0,0.233,0.185,0.399,0.556,0.496l1.138,0.267
						c0.92,0.218,1.38,0.727,1.38,1.523c0,0.525-0.196,0.942-0.588,1.253c-0.392,0.312-0.894,0.466-1.506,0.466
						c-0.629,0-1.147-0.148-1.555-0.447C219.77,280.403,219.526,279.996,219.446,279.479z"/>
					<path fill="#585A5E" d="M225.29,279.576v-2.916h-0.848v-1.004h0.848v-1.44h1.21v1.44h1.21v1.004h-1.21v2.783
						c0,0.419,0.214,0.629,0.642,0.629c0.258,0,0.488-0.072,0.689-0.219v1.103c-0.219,0.129-0.521,0.192-0.907,0.192
						c-0.5,0-0.897-0.133-1.192-0.398S225.29,280.093,225.29,279.576z"/>
				</g>
			</g>
		</g>
		<g>
			<g>
				<g enable-background="new    ">
					<path fill="#585A5E" d="M188.482,306.623h-0.896v3.013h-1.258v-7.43h2.867c0.782,0,1.399,0.191,1.853,0.575
						c0.452,0.383,0.677,0.934,0.677,1.65c0,0.613-0.167,1.101-0.502,1.458c-0.335,0.359-0.801,0.588-1.396,0.685l2.153,3.062
						h-1.428L188.482,306.623z M187.587,303.295v2.275h1.585c0.411,0,0.731-0.104,0.962-0.31c0.229-0.206,0.345-0.481,0.345-0.829
						c0-0.347-0.115-0.623-0.345-0.829c-0.23-0.205-0.551-0.309-0.962-0.309L187.587,303.295L187.587,303.295z"/>
					<path fill="#585A5E" d="M196.287,307.966h1.112c-0.097,0.549-0.341,0.984-0.731,1.308c-0.393,0.322-0.901,0.483-1.531,0.483
						c-0.75,0-1.361-0.258-1.833-0.773c-0.472-0.518-0.708-1.189-0.708-2.021c0-0.807,0.238-1.479,0.714-2.015
						c0.477-0.537,1.077-0.806,1.803-0.806c0.742,0,1.316,0.24,1.725,0.721c0.407,0.479,0.61,1.123,0.61,1.93v0.437h-3.666
						c0.017,0.468,0.147,0.837,0.394,1.106c0.246,0.271,0.567,0.405,0.962,0.405C195.774,308.74,196.157,308.483,196.287,307.966z
						 M195.125,305.159c-0.338,0-0.623,0.103-0.854,0.309c-0.229,0.205-0.381,0.498-0.454,0.877h2.433
						c-0.008-0.347-0.109-0.631-0.304-0.854C195.755,305.269,195.479,305.159,195.125,305.159z"/>
					<path fill="#585A5E" d="M198.186,308.087h1.234c0.137,0.452,0.492,0.678,1.064,0.678c0.282,0,0.506-0.055,0.671-0.162
						c0.165-0.109,0.248-0.27,0.248-0.479c0-0.145-0.048-0.26-0.145-0.345s-0.258-0.155-0.484-0.212l-1.112-0.267
						c-0.888-0.21-1.331-0.702-1.331-1.477c0-0.484,0.19-0.886,0.574-1.204s0.869-0.479,1.458-0.479c0.613,0,1.102,0.14,1.465,0.417
						c0.362,0.278,0.593,0.668,0.689,1.168h-1.186c-0.121-0.396-0.448-0.593-0.98-0.593c-0.233,0-0.436,0.053-0.604,0.157
						c-0.169,0.104-0.254,0.258-0.254,0.46c0,0.232,0.185,0.399,0.556,0.496l1.138,0.266c0.919,0.219,1.379,0.728,1.379,1.524
						c0,0.525-0.195,0.942-0.587,1.253c-0.392,0.312-0.894,0.466-1.506,0.466c-0.629,0-1.147-0.148-1.555-0.448
						C198.511,309.01,198.266,308.604,198.186,308.087z"/>
					<path fill="#585A5E" d="M204.962,309.176v2.518h-1.21v-7.43h1.21v0.459c0.129-0.161,0.318-0.298,0.568-0.411
						c0.25-0.111,0.517-0.169,0.8-0.169c0.758,0,1.362,0.272,1.814,0.816c0.452,0.545,0.678,1.208,0.678,1.99
						c0,0.783-0.226,1.446-0.678,1.991c-0.452,0.544-1.057,0.815-1.814,0.815c-0.283,0-0.55-0.057-0.8-0.17
						C205.28,309.475,205.092,309.337,204.962,309.176z M204.962,305.933v2.032c0.104,0.21,0.262,0.381,0.472,0.516
						c0.209,0.133,0.439,0.198,0.689,0.198c0.46,0,0.822-0.16,1.089-0.482c0.266-0.323,0.398-0.738,0.398-1.247
						c0-0.508-0.133-0.923-0.398-1.246c-0.267-0.322-0.629-0.483-1.089-0.483c-0.25,0-0.48,0.066-0.689,0.199
						C205.223,305.552,205.066,305.723,204.962,305.933z"/>
					<path fill="#585A5E" d="M213.97,304.928c0.472,0.524,0.708,1.198,0.708,2.021s-0.236,1.497-0.708,2.021
						c-0.472,0.524-1.087,0.786-1.845,0.786s-1.374-0.262-1.846-0.786c-0.472-0.523-0.708-1.197-0.708-2.021
						c0-0.822,0.236-1.496,0.708-2.021c0.473-0.523,1.088-0.786,1.846-0.786S213.499,304.404,213.97,304.928z M213.118,308.227
						c0.233-0.327,0.351-0.754,0.351-1.277c0-0.524-0.117-0.949-0.351-1.276c-0.234-0.326-0.565-0.49-0.992-0.49
						c-0.429,0-0.758,0.164-0.992,0.49c-0.234,0.327-0.352,0.752-0.352,1.276c0,0.523,0.117,0.95,0.352,1.277
						c0.234,0.325,0.563,0.488,0.992,0.488C212.552,308.716,212.884,308.552,213.118,308.227z"/>
					<path fill="#585A5E" d="M215.803,309.635v-5.372h1.21v0.508c0.363-0.419,0.847-0.629,1.452-0.629
						c0.597,0,1.062,0.183,1.396,0.544c0.335,0.363,0.502,0.849,0.502,1.452v3.497h-1.21v-3.291c0-0.347-0.085-0.617-0.254-0.811
						c-0.169-0.194-0.423-0.291-0.762-0.291c-0.266,0-0.504,0.079-0.714,0.235c-0.21,0.157-0.347,0.365-0.412,0.624v3.532
						L215.803,309.635L215.803,309.635z"/>
					<path fill="#585A5E" d="M221.418,308.087h1.233c0.138,0.452,0.492,0.678,1.065,0.678c0.282,0,0.506-0.055,0.671-0.162
						c0.165-0.109,0.248-0.27,0.248-0.479c0-0.145-0.048-0.26-0.146-0.345c-0.097-0.085-0.258-0.155-0.483-0.212l-1.113-0.267
						c-0.887-0.21-1.331-0.702-1.331-1.477c0-0.484,0.191-0.886,0.575-1.204c0.383-0.318,0.869-0.479,1.458-0.479
						c0.613,0,1.101,0.14,1.464,0.417c0.363,0.278,0.593,0.668,0.69,1.168h-1.187c-0.121-0.396-0.448-0.593-0.979-0.593
						c-0.234,0-0.437,0.053-0.605,0.157c-0.169,0.104-0.254,0.258-0.254,0.46c0,0.232,0.186,0.399,0.556,0.496l1.139,0.266
						c0.919,0.219,1.379,0.728,1.379,1.524c0,0.525-0.196,0.942-0.587,1.253c-0.393,0.312-0.895,0.466-1.506,0.466
						c-0.629,0-1.148-0.148-1.556-0.448C221.743,309.01,221.499,308.604,221.418,308.087z"/>
					<path fill="#585A5E" d="M230.3,307.966h1.113c-0.098,0.549-0.342,0.984-0.732,1.308c-0.392,0.322-0.901,0.483-1.531,0.483
						c-0.75,0-1.36-0.258-1.833-0.773c-0.472-0.518-0.708-1.189-0.708-2.021c0-0.807,0.238-1.479,0.714-2.015
						c0.477-0.537,1.077-0.806,1.804-0.806c0.742,0,1.315,0.24,1.724,0.721c0.407,0.479,0.611,1.123,0.611,1.93v0.437h-3.666
						c0.016,0.468,0.146,0.837,0.393,1.106c0.246,0.271,0.567,0.405,0.962,0.405C229.787,308.74,230.171,308.483,230.3,307.966z
						 M229.137,305.159c-0.338,0-0.623,0.103-0.853,0.309c-0.229,0.205-0.382,0.498-0.454,0.877h2.432
						c-0.008-0.347-0.109-0.631-0.303-0.854C229.766,305.269,229.493,305.159,229.137,305.159z"/>
				</g>
			</g>
		</g>
		<g>
			<rect x="425.401" y="243.96" fill="#DCDCDD" width="157.293" height="93.5"/>
			<rect x="425.401" y="243.96" fill="#585A5E" width="157.293" height="34.1"/>
			<g>
				<g>
					<g>
						<g enable-background="new    ">
							<path fill="#FFFFFF" d="M461.194,258.322h-0.023l0.023,0.326v6.788h-1.137v-8.47h1.705l2.648,6.97l2.65-6.97h1.707v8.47
								h-1.139v-6.788l0.025-0.326h-0.037l-2.746,7.114h-0.92L461.194,258.322z"/>
							<path fill="#FFFFFF" d="M476.114,263.659c-0.041,0.218-0.115,0.444-0.225,0.684c-0.107,0.237-0.268,0.455-0.471,0.653
								c-0.207,0.197-0.473,0.36-0.795,0.49c-0.32,0.129-0.721,0.192-1.195,0.192c-0.51,0-0.939-0.067-1.289-0.206
								c-0.354-0.137-0.643-0.312-0.871-0.525c-0.23-0.215-0.41-0.449-0.539-0.708s-0.223-0.509-0.283-0.75
								c-0.061-0.242-0.098-0.462-0.109-0.659s-0.018-0.345-0.018-0.441c0-0.138,0.008-0.315,0.023-0.539
								c0.016-0.222,0.057-0.455,0.121-0.701c0.062-0.245,0.16-0.493,0.291-0.743c0.129-0.25,0.303-0.478,0.523-0.679
								c0.225-0.202,0.498-0.364,0.83-0.489c0.33-0.125,0.732-0.188,1.209-0.188c0.613,0,1.105,0.106,1.471,0.32
								c0.367,0.214,0.648,0.481,0.848,0.805c0.197,0.323,0.332,0.676,0.398,1.059c0.068,0.385,0.111,0.74,0.127,1.071
								c0,0.048,0.002,0.1,0.008,0.151c0.004,0.052,0.006,0.103,0.006,0.15h-4.73c0,0.267,0.035,0.536,0.107,0.812
								c0.072,0.273,0.186,0.521,0.34,0.744c0.152,0.222,0.354,0.404,0.6,0.551c0.244,0.145,0.545,0.218,0.9,0.218
								c0.25,0,0.477-0.034,0.678-0.104c0.201-0.068,0.373-0.161,0.516-0.278c0.141-0.116,0.254-0.252,0.338-0.405
								c0.084-0.152,0.143-0.313,0.176-0.482L476.114,263.659L476.114,263.659z M475.049,261.855c-0.01-0.2-0.037-0.423-0.086-0.665
								c-0.049-0.241-0.135-0.466-0.26-0.672c-0.127-0.205-0.297-0.377-0.516-0.514c-0.217-0.138-0.5-0.206-0.846-0.206
								c-0.389,0-0.707,0.07-0.957,0.212c-0.25,0.143-0.445,0.316-0.586,0.526c-0.143,0.21-0.236,0.434-0.285,0.672
								c-0.049,0.237-0.072,0.453-0.072,0.646L475.049,261.855L475.049,261.855z"/>
							<path fill="#FFFFFF" d="M478.196,263.61c0.008,0.241,0.061,0.446,0.154,0.616c0.098,0.169,0.223,0.308,0.379,0.411
								c0.156,0.105,0.332,0.181,0.527,0.225c0.195,0.045,0.395,0.066,0.596,0.066c0.352,0,0.623-0.049,0.816-0.146
								c0.189-0.098,0.33-0.21,0.42-0.339c0.088-0.13,0.139-0.259,0.148-0.389c0.012-0.129,0.02-0.226,0.02-0.29
								c0-0.097-0.012-0.19-0.029-0.284c-0.021-0.093-0.074-0.182-0.164-0.267c-0.088-0.084-0.217-0.165-0.391-0.241
								c-0.172-0.077-0.406-0.15-0.703-0.225l-0.648-0.146c-0.258-0.057-0.502-0.121-0.734-0.193s-0.438-0.173-0.613-0.303
								c-0.176-0.129-0.316-0.297-0.42-0.503c-0.104-0.204-0.156-0.47-0.156-0.792c0-0.339,0.068-0.623,0.205-0.854
								c0.137-0.229,0.318-0.411,0.545-0.544c0.227-0.134,0.477-0.229,0.75-0.284c0.275-0.057,0.553-0.085,0.836-0.085
								c0.523,0,0.945,0.064,1.264,0.193c0.32,0.129,0.566,0.289,0.744,0.479c0.18,0.19,0.299,0.392,0.363,0.604
								s0.104,0.404,0.121,0.574h-1.018c-0.008-0.089-0.029-0.195-0.066-0.32s-0.105-0.246-0.207-0.362
								c-0.102-0.117-0.244-0.216-0.432-0.297c-0.186-0.08-0.434-0.121-0.74-0.121c-0.033,0-0.117,0.004-0.256,0.012
								c-0.139,0.01-0.281,0.043-0.432,0.104c-0.148,0.061-0.285,0.157-0.406,0.29s-0.184,0.319-0.184,0.562
								c0,0.218,0.047,0.393,0.141,0.521s0.219,0.229,0.375,0.303c0.158,0.073,0.342,0.131,0.547,0.176
								c0.207,0.044,0.42,0.09,0.639,0.14c0.314,0.071,0.605,0.146,0.873,0.224s0.5,0.178,0.697,0.303
								c0.199,0.125,0.352,0.288,0.461,0.49c0.109,0.201,0.164,0.46,0.164,0.774c0,0.321-0.057,0.595-0.168,0.815
								c-0.113,0.222-0.256,0.407-0.424,0.558c-0.17,0.148-0.357,0.265-0.562,0.345c-0.207,0.081-0.404,0.142-0.594,0.182
								s-0.355,0.064-0.496,0.072c-0.141,0.009-0.236,0.013-0.283,0.013c-0.461,0-0.857-0.055-1.193-0.163
								c-0.334-0.108-0.613-0.259-0.84-0.447c-0.227-0.189-0.395-0.409-0.508-0.659s-0.174-0.518-0.182-0.799H478.196
								L478.196,263.61z"/>
							<path fill="#FFFFFF" d="M484.317,263.61c0.008,0.241,0.061,0.446,0.156,0.616c0.096,0.169,0.223,0.308,0.379,0.411
								c0.156,0.105,0.332,0.181,0.527,0.225c0.195,0.045,0.395,0.066,0.596,0.066c0.352,0,0.623-0.049,0.814-0.146
								c0.191-0.098,0.332-0.21,0.422-0.339c0.088-0.13,0.137-0.259,0.148-0.389c0.012-0.129,0.02-0.226,0.02-0.29
								c0-0.097-0.012-0.19-0.031-0.284c-0.02-0.093-0.074-0.182-0.162-0.267c-0.088-0.084-0.219-0.165-0.391-0.241
								c-0.174-0.077-0.406-0.15-0.703-0.225l-0.65-0.146c-0.256-0.057-0.5-0.121-0.732-0.193s-0.438-0.173-0.613-0.303
								c-0.174-0.129-0.316-0.297-0.42-0.503c-0.105-0.204-0.156-0.47-0.156-0.792c0-0.339,0.068-0.623,0.205-0.854
								c0.137-0.229,0.318-0.411,0.545-0.544c0.225-0.134,0.475-0.229,0.75-0.284c0.273-0.057,0.553-0.085,0.834-0.085
								c0.525,0,0.947,0.064,1.266,0.193s0.566,0.289,0.744,0.479s0.299,0.392,0.363,0.604s0.104,0.404,0.121,0.574h-1.018
								c-0.008-0.089-0.029-0.195-0.066-0.32s-0.105-0.246-0.207-0.362c-0.102-0.117-0.244-0.216-0.432-0.297
								c-0.186-0.08-0.434-0.121-0.74-0.121c-0.033,0-0.119,0.004-0.256,0.012c-0.139,0.01-0.281,0.043-0.432,0.104
								c-0.15,0.061-0.285,0.157-0.408,0.29c-0.121,0.133-0.182,0.319-0.182,0.562c0,0.218,0.047,0.393,0.139,0.521
								c0.094,0.129,0.221,0.229,0.377,0.303c0.158,0.072,0.34,0.131,0.547,0.176c0.207,0.044,0.418,0.09,0.637,0.14
								c0.316,0.071,0.607,0.146,0.875,0.224c0.266,0.077,0.5,0.178,0.697,0.303s0.352,0.288,0.461,0.49
								c0.109,0.201,0.164,0.46,0.164,0.774c0,0.321-0.057,0.595-0.17,0.815s-0.254,0.407-0.424,0.558
								c-0.168,0.149-0.355,0.265-0.562,0.345c-0.205,0.081-0.402,0.142-0.592,0.182s-0.355,0.064-0.496,0.072
								c-0.143,0.009-0.236,0.013-0.285,0.013c-0.459,0-0.857-0.055-1.191-0.163s-0.613-0.259-0.84-0.447
								c-0.227-0.189-0.396-0.409-0.51-0.659s-0.174-0.518-0.182-0.799H484.317L484.317,263.61z"/>
							<path fill="#FFFFFF" d="M489.606,261.105c0-0.2,0.033-0.423,0.104-0.665c0.066-0.241,0.195-0.466,0.387-0.672
								c0.189-0.206,0.455-0.377,0.799-0.514c0.342-0.138,0.783-0.206,1.324-0.206c0.25,0,0.518,0.024,0.805,0.072
								c0.287,0.049,0.553,0.146,0.799,0.291c0.246,0.145,0.449,0.353,0.611,0.623c0.16,0.27,0.238,0.631,0.229,1.083l-0.061,2.843
								c0,0.121,0.002,0.229,0.006,0.321s0.027,0.169,0.066,0.229c0.041,0.061,0.104,0.107,0.193,0.14
								c0.088,0.032,0.213,0.045,0.375,0.036v0.75c-0.072,0.017-0.145,0.028-0.213,0.036c-0.066,0.008-0.158,0.014-0.27,0.014
								c-0.146,0-0.281-0.012-0.406-0.03c-0.125-0.021-0.234-0.062-0.326-0.121c-0.094-0.061-0.17-0.149-0.23-0.267
								s-0.105-0.276-0.139-0.479c-0.104,0.193-0.234,0.358-0.387,0.496c-0.154,0.137-0.322,0.25-0.508,0.339
								c-0.188,0.088-0.383,0.152-0.588,0.193c-0.205,0.04-0.414,0.061-0.623,0.061c-0.646,0-1.168-0.146-1.566-0.44
								c-0.398-0.296-0.6-0.766-0.6-1.41c0-0.268,0.041-0.506,0.121-0.721c0.08-0.214,0.232-0.402,0.459-0.568
								c0.227-0.165,0.531-0.302,0.92-0.411c0.389-0.108,0.893-0.191,1.514-0.248c0.227-0.016,0.414-0.032,0.568-0.048
								c0.152-0.018,0.275-0.051,0.369-0.104c0.092-0.052,0.158-0.131,0.197-0.234c0.041-0.105,0.062-0.26,0.062-0.46
								c0-0.072-0.008-0.179-0.023-0.314c-0.018-0.138-0.068-0.273-0.158-0.412c-0.088-0.137-0.227-0.256-0.41-0.355
								c-0.186-0.101-0.449-0.151-0.787-0.151c-0.098,0-0.236,0.008-0.418,0.024c-0.182,0.016-0.361,0.065-0.537,0.15
								c-0.178,0.084-0.332,0.214-0.461,0.388s-0.189,0.422-0.182,0.743H489.606z M493.598,262.291
								c-0.08,0.064-0.164,0.111-0.252,0.14c-0.088,0.029-0.186,0.051-0.289,0.066c-0.104,0.017-0.221,0.03-0.354,0.042
								c-0.133,0.013-0.281,0.03-0.449,0.055c-0.232,0.041-0.455,0.079-0.666,0.115c-0.213,0.036-0.398,0.093-0.559,0.169
								c-0.16,0.077-0.287,0.188-0.379,0.333c-0.092,0.145-0.139,0.339-0.139,0.581c0,0.363,0.109,0.644,0.33,0.841
								c0.221,0.198,0.502,0.297,0.848,0.297c0.207,0,0.418-0.03,0.629-0.091c0.213-0.061,0.408-0.17,0.59-0.327
								c0.18-0.157,0.33-0.373,0.449-0.646s0.191-0.625,0.217-1.054L493.598,262.291z"/>
							<path fill="#FFFFFF" d="M497.639,266.132c0.049,0.179,0.129,0.325,0.242,0.439c0.111,0.112,0.242,0.204,0.393,0.273
								s0.311,0.116,0.484,0.142c0.172,0.024,0.342,0.035,0.502,0.035c0.42,0,0.742-0.085,0.969-0.255
								c0.225-0.171,0.393-0.364,0.502-0.584c0.109-0.219,0.174-0.434,0.193-0.644c0.02-0.211,0.029-0.357,0.029-0.438v-0.668
								c-0.145,0.233-0.285,0.43-0.424,0.587c-0.137,0.157-0.285,0.284-0.439,0.381c-0.158,0.098-0.328,0.167-0.51,0.213
								c-0.182,0.044-0.387,0.065-0.609,0.065c-0.363,0-0.713-0.063-1.047-0.192c-0.336-0.13-0.631-0.329-0.885-0.601
								c-0.254-0.27-0.459-0.617-0.609-1.04c-0.154-0.424-0.23-0.934-0.23-1.531c0-0.097,0.004-0.242,0.012-0.44
								c0.008-0.197,0.037-0.417,0.086-0.659c0.047-0.242,0.127-0.49,0.234-0.744c0.109-0.254,0.264-0.488,0.461-0.702
								s0.447-0.387,0.75-0.521c0.303-0.133,0.676-0.199,1.119-0.199c0.508,0,0.941,0.093,1.301,0.278
								c0.357,0.186,0.635,0.456,0.828,0.811h0.037v-0.847h0.992v5.989c0,0.396-0.055,0.729-0.164,1.004
								c-0.109,0.273-0.248,0.504-0.418,0.689c-0.168,0.187-0.361,0.33-0.574,0.437c-0.213,0.104-0.422,0.186-0.623,0.241
								c-0.201,0.057-0.391,0.091-0.568,0.104c-0.178,0.012-0.314,0.018-0.412,0.018c-0.145,0-0.346-0.008-0.604-0.022
								c-0.26-0.017-0.521-0.075-0.793-0.176c-0.27-0.102-0.52-0.262-0.75-0.482c-0.229-0.221-0.395-0.541-0.488-0.959
								L497.639,266.132L497.639,266.132z M499.211,264.929c0.098,0,0.246-0.025,0.447-0.079c0.201-0.053,0.402-0.169,0.605-0.351
								c0.201-0.183,0.379-0.446,0.531-0.793s0.23-0.818,0.23-1.416c0-0.773-0.162-1.383-0.484-1.826
								c-0.322-0.444-0.799-0.666-1.428-0.666c-0.299,0-0.551,0.051-0.756,0.151c-0.207,0.101-0.375,0.228-0.51,0.381
								c-0.133,0.153-0.232,0.327-0.301,0.521c-0.07,0.193-0.121,0.382-0.158,0.562c-0.037,0.182-0.059,0.352-0.062,0.509
								s-0.006,0.276-0.006,0.356c0,0.621,0.074,1.108,0.227,1.464c0.146,0.354,0.324,0.619,0.529,0.793
								c0.207,0.174,0.416,0.282,0.631,0.326C498.924,264.907,499.09,264.929,499.211,264.929z"/>
							<path fill="#FFFFFF" d="M509.205,263.659c-0.041,0.218-0.113,0.444-0.225,0.684c-0.107,0.237-0.266,0.455-0.471,0.653
								c-0.207,0.197-0.471,0.36-0.793,0.49c-0.322,0.129-0.723,0.192-1.197,0.192c-0.51,0-0.939-0.067-1.289-0.206
								c-0.352-0.137-0.641-0.312-0.871-0.525c-0.229-0.215-0.41-0.449-0.539-0.708s-0.223-0.509-0.283-0.75
								c-0.061-0.242-0.098-0.462-0.107-0.659c-0.014-0.197-0.02-0.345-0.02-0.441c0-0.138,0.008-0.315,0.023-0.539
								c0.016-0.222,0.057-0.455,0.121-0.701c0.064-0.245,0.16-0.493,0.291-0.743c0.129-0.25,0.303-0.478,0.525-0.679
								c0.223-0.202,0.498-0.364,0.828-0.489s0.734-0.188,1.211-0.188c0.613,0,1.104,0.106,1.471,0.32
								c0.365,0.214,0.648,0.481,0.846,0.805s0.332,0.676,0.4,1.059c0.068,0.385,0.109,0.74,0.127,1.071
								c0,0.048,0.002,0.1,0.006,0.151s0.006,0.103,0.006,0.15h-4.73c0,0.267,0.035,0.536,0.107,0.812
								c0.074,0.273,0.186,0.521,0.34,0.744c0.152,0.222,0.354,0.404,0.6,0.551c0.244,0.145,0.547,0.218,0.9,0.218
								c0.25,0,0.477-0.034,0.678-0.104c0.201-0.068,0.373-0.161,0.516-0.278c0.141-0.116,0.254-0.252,0.34-0.405
								c0.084-0.152,0.143-0.313,0.174-0.482L509.205,263.659L509.205,263.659z M508.143,261.855c-0.01-0.2-0.037-0.423-0.086-0.665
								c-0.049-0.241-0.135-0.466-0.26-0.672c-0.125-0.205-0.299-0.377-0.516-0.514c-0.219-0.138-0.5-0.206-0.848-0.206
								c-0.387,0-0.705,0.07-0.955,0.212c-0.25,0.143-0.445,0.316-0.588,0.526c-0.141,0.21-0.234,0.434-0.283,0.672
								c-0.049,0.237-0.072,0.453-0.072,0.646L508.143,261.855L508.143,261.855z"/>
							<path fill="#FFFFFF" d="M517.35,256.968c0.516,0,0.938,0.066,1.264,0.199c0.328,0.133,0.584,0.303,0.77,0.509
								c0.186,0.205,0.314,0.437,0.387,0.689c0.074,0.253,0.109,0.506,0.109,0.756c0,0.227-0.035,0.44-0.107,0.646
								s-0.172,0.391-0.299,0.552c-0.127,0.16-0.273,0.296-0.441,0.404c-0.166,0.108-0.35,0.181-0.547,0.212v0.036
								c0.176,0.032,0.363,0.089,0.568,0.169c0.203,0.081,0.391,0.202,0.566,0.363s0.322,0.369,0.443,0.623
								c0.119,0.254,0.18,0.571,0.18,0.95c0,0.307-0.045,0.601-0.135,0.883c-0.088,0.283-0.248,0.533-0.477,0.751
								c-0.23,0.218-0.539,0.393-0.928,0.526c-0.387,0.133-0.883,0.198-1.486,0.198h-3.582v-8.47h3.715V256.968z M514.772,260.561
								h2.301c0.316,0,0.582-0.037,0.793-0.108c0.211-0.072,0.381-0.169,0.512-0.29c0.129-0.121,0.223-0.261,0.279-0.418
								s0.084-0.324,0.084-0.502c0-0.121-0.018-0.259-0.055-0.411c-0.037-0.153-0.111-0.297-0.225-0.431
								c-0.115-0.133-0.277-0.245-0.492-0.339c-0.217-0.093-0.502-0.139-0.859-0.139h-2.338V260.561L514.772,260.561z
								 M514.772,264.481h2.373c0.195,0,0.408-0.014,0.639-0.042c0.232-0.027,0.445-0.093,0.639-0.192
								c0.195-0.103,0.357-0.25,0.486-0.448c0.131-0.197,0.195-0.47,0.195-0.816c0-0.273-0.047-0.504-0.139-0.689
								c-0.096-0.186-0.227-0.334-0.396-0.447s-0.375-0.194-0.615-0.248c-0.238-0.053-0.508-0.078-0.809-0.078h-2.373V264.481
								L514.772,264.481z"/>
							<path fill="#FFFFFF" d="M525.25,259.799c-0.361,0.017-0.684,0.064-0.963,0.146c-0.277,0.079-0.516,0.204-0.713,0.375
								c-0.197,0.169-0.354,0.387-0.473,0.652c-0.117,0.267-0.188,0.593-0.211,0.98c-0.01,0.111-0.014,0.222-0.014,0.326
								s0,0.214,0,0.326v2.831h-1.064v-6.146h1.064v1.186h0.023c0.074-0.226,0.182-0.426,0.322-0.599
								c0.141-0.174,0.303-0.319,0.482-0.437c0.182-0.116,0.377-0.208,0.588-0.271c0.209-0.064,0.424-0.101,0.641-0.109l0.314-0.012
								v0.75H525.25z"/>
							<path fill="#FFFFFF" d="M525.625,262.364c0-0.411,0.053-0.814,0.156-1.21c0.105-0.396,0.275-0.748,0.516-1.06
								c0.238-0.311,0.551-0.562,0.938-0.757c0.387-0.193,0.859-0.29,1.416-0.29s1.029,0.097,1.416,0.29s0.699,0.446,0.938,0.757
								c0.238,0.312,0.41,0.663,0.516,1.06c0.105,0.396,0.156,0.799,0.156,1.21c0,0.41-0.053,0.813-0.156,1.21
								c-0.105,0.396-0.277,0.748-0.516,1.059c-0.238,0.312-0.551,0.562-0.938,0.756c-0.387,0.194-0.859,0.291-1.416,0.291
								s-1.029-0.097-1.416-0.291c-0.387-0.192-0.699-0.444-0.938-0.756c-0.24-0.311-0.41-0.663-0.516-1.059
								C525.678,263.178,525.625,262.775,525.625,262.364z M526.75,262.364c0,0.609,0.076,1.088,0.229,1.433
								c0.154,0.346,0.336,0.603,0.545,0.771c0.211,0.168,0.42,0.271,0.629,0.307c0.211,0.036,0.375,0.055,0.496,0.055
								s0.287-0.019,0.496-0.055c0.211-0.036,0.42-0.139,0.629-0.307c0.211-0.17,0.395-0.427,0.545-0.771
								c0.154-0.345,0.23-0.822,0.23-1.433c0-0.611-0.076-1.089-0.23-1.435c-0.15-0.345-0.334-0.602-0.545-0.771
								c-0.209-0.169-0.418-0.271-0.629-0.308c-0.209-0.036-0.375-0.055-0.496-0.055s-0.285,0.019-0.496,0.055
								c-0.209,0.036-0.418,0.139-0.629,0.308c-0.209,0.169-0.391,0.426-0.545,0.771C526.826,261.277,526.75,261.754,526.75,262.364
								z"/>
							<path fill="#FFFFFF" d="M537.061,259.291h1.27l-2.443,2.371l2.662,3.774h-1.209l-2.166-3.122l-1.041,1.028v2.094h-1.064
								v-8.47h1.064v5.251L537.061,259.291z"/>
							<path fill="#FFFFFF" d="M544.84,263.659c-0.039,0.218-0.115,0.444-0.225,0.684c-0.107,0.237-0.266,0.455-0.473,0.653
								c-0.205,0.197-0.469,0.36-0.791,0.49c-0.324,0.129-0.723,0.192-1.199,0.192c-0.508,0-0.938-0.067-1.289-0.206
								c-0.35-0.137-0.641-0.312-0.871-0.525c-0.229-0.215-0.408-0.449-0.537-0.708s-0.225-0.509-0.283-0.75
								c-0.061-0.242-0.098-0.462-0.109-0.659s-0.018-0.345-0.018-0.441c0-0.138,0.008-0.315,0.021-0.539
								c0.018-0.222,0.057-0.455,0.121-0.701c0.064-0.245,0.162-0.493,0.291-0.743s0.305-0.478,0.527-0.679
								c0.221-0.202,0.498-0.364,0.828-0.489s0.732-0.188,1.209-0.188c0.613,0,1.104,0.106,1.471,0.32s0.648,0.481,0.848,0.805
								c0.197,0.323,0.33,0.676,0.398,1.059c0.068,0.385,0.111,0.74,0.127,1.071c0,0.048,0.002,0.1,0.006,0.151
								s0.006,0.103,0.006,0.15h-4.729c0,0.267,0.035,0.536,0.107,0.812s0.188,0.521,0.338,0.744
								c0.154,0.222,0.355,0.404,0.602,0.551c0.246,0.145,0.547,0.218,0.9,0.218c0.25,0,0.477-0.034,0.678-0.104
								c0.201-0.068,0.373-0.161,0.516-0.278c0.141-0.116,0.254-0.252,0.338-0.405c0.084-0.152,0.143-0.313,0.176-0.482
								L544.84,263.659L544.84,263.659z M543.776,261.855c-0.008-0.2-0.035-0.423-0.084-0.665c-0.049-0.241-0.135-0.466-0.26-0.672
								c-0.127-0.205-0.297-0.377-0.518-0.514c-0.217-0.138-0.5-0.206-0.846-0.206c-0.387,0-0.707,0.07-0.957,0.212
								c-0.25,0.143-0.443,0.316-0.586,0.526c-0.141,0.21-0.236,0.434-0.285,0.672c-0.047,0.237-0.07,0.453-0.07,0.646
								L543.776,261.855L543.776,261.855z"/>
							<path fill="#FFFFFF" d="M549.729,259.799c-0.363,0.017-0.684,0.064-0.961,0.146c-0.279,0.079-0.52,0.204-0.715,0.375
								c-0.197,0.169-0.355,0.387-0.473,0.652c-0.115,0.268-0.188,0.593-0.213,0.98c-0.008,0.111-0.012,0.222-0.012,0.326
								s0,0.214,0,0.326v2.831h-1.064v-6.146h1.064v1.186h0.023c0.072-0.226,0.18-0.426,0.32-0.599
								c0.143-0.174,0.305-0.319,0.484-0.437c0.182-0.116,0.377-0.208,0.588-0.271c0.209-0.064,0.424-0.101,0.641-0.109l0.314-0.012
								v0.75H549.729z"/>
						</g>
					</g>
				</g>
			</g>
			<g>
				<g>
					<g>
						<path fill="#FFFFFF" d="M567.256,301.612c0,3.563,0,7.131,0,10.694c-0.189,0.483-0.412,0.966-0.562,1.448
							c-1.094,3.536-2.58,7.018-6.104,10.229c-2.438,2.221-5.92,3.315-11.506,3.286c-19.096-0.102-71.227-0.107-90.316,0.044
							c-5.59,0.044-9.107-0.971-11.648-3.16c-1.062-0.915-1.988-1.852-2.676-2.84c-5.438-7.85-5.662-15.841-2.697-23.891
							c1.152-3.123,2.883-6.189,6.99-8.811c1.904-1.219,4.217-1.975,7.611-1.97c20.451,0.038,73.936,0.061,94.389,0.028
							c3.744-0.007,6.375,0.711,8.391,2.123c2.068,1.449,3.426,3.045,4.566,4.699C565.524,296.14,566.207,298.892,567.256,301.612z"
							/>
						<path fill="none" stroke="#DCDCDD" stroke-width="0.9283" stroke-miterlimit="10" d="M555.852,327.316
							c-5.588,0.044-9.107-0.971-11.648-3.16c-1.061-0.915-1.986-1.852-2.676-2.84c-5.438-7.85-5.662-15.841-2.695-23.891
							c1.15-3.123,2.881-6.191,6.988-8.811c1.904-1.219,4.217-1.975,7.611-1.97"/>
					</g>
				</g>
				<g>
					<g enable-background="new    ">
						<path fill="#585A5E" d="M465.608,309.564h1.307c0.088,0.759,0.482,1.138,1.186,1.138c0.84,0,1.258-0.513,1.258-1.537v-4.864
							h1.26v4.864c0,0.871-0.223,1.537-0.666,1.997c-0.443,0.459-1.053,0.689-1.828,0.689c-0.766,0-1.361-0.208-1.789-0.623
							C465.905,310.812,465.662,310.258,465.608,309.564z"/>
						<path fill="#585A5E" d="M476.254,311.73h-0.896l-2.045-5.167v5.167h-1.197V304.3h1.439l2.262,5.712l2.238-5.712h1.404v7.431
							h-1.211v-5.167L476.254,311.73z"/>
						<path fill="#585A5E" d="M480.526,309.673h1.283c0.232,0.742,0.793,1.113,1.682,1.113c0.436,0,0.783-0.1,1.047-0.297
							c0.262-0.197,0.393-0.466,0.393-0.805c0-0.268-0.082-0.479-0.248-0.636c-0.164-0.157-0.441-0.279-0.828-0.369l-1.258-0.303
							c-1.234-0.291-1.852-0.956-1.852-1.997c0-0.637,0.234-1.163,0.707-1.579c0.473-0.415,1.078-0.623,1.82-0.623
							c0.783,0,1.414,0.185,1.895,0.551c0.48,0.367,0.789,0.869,0.926,1.508h-1.258c-0.234-0.661-0.752-0.992-1.549-0.992
							c-0.404,0-0.729,0.095-0.975,0.284c-0.246,0.188-0.369,0.438-0.369,0.744c0,0.491,0.326,0.813,0.98,0.968l1.295,0.303
							c0.604,0.137,1.076,0.379,1.414,0.727c0.34,0.348,0.51,0.79,0.51,1.33c0,0.687-0.246,1.232-0.738,1.641
							s-1.131,0.61-1.912,0.61c-0.791,0-1.451-0.19-1.979-0.574C480.983,310.893,480.655,310.359,480.526,309.673z"/>
						<path fill="#585A5E" d="M495.252,312.226l-0.605-0.75c-0.477,0.25-0.996,0.375-1.561,0.375c-1,0-1.822-0.361-2.465-1.083
							c-0.641-0.723-0.961-1.641-0.961-2.754c0-1.112,0.32-2.029,0.961-2.753c0.643-0.722,1.465-1.083,2.465-1.083
							s1.82,0.361,2.469,1.083c0.645,0.724,0.967,1.641,0.967,2.753c0,1.139-0.342,2.069-1.027,2.796l0.615,0.763L495.252,312.226z
							 M495.252,308.014c0-0.789-0.201-1.438-0.602-1.948c-0.396-0.508-0.922-0.762-1.564-0.762c-0.646,0-1.166,0.252-1.562,0.756
							c-0.395,0.505-0.594,1.155-0.594,1.954c0,0.8,0.197,1.45,0.594,1.954c0.396,0.506,0.914,0.758,1.562,0.758
							c0.307,0,0.588-0.05,0.846-0.146l-0.617-0.763l0.871-0.642l0.594,0.737C495.094,309.446,495.252,308.814,495.252,308.014z"/>
						<path fill="#585A5E" d="M502.149,306.358v5.372h-1.211v-0.509c-0.363,0.42-0.842,0.63-1.439,0.63s-1.061-0.183-1.391-0.546
							c-0.332-0.361-0.496-0.847-0.496-1.451v-3.496h1.209v3.291c0,0.733,0.334,1.101,1.004,1.101c0.268,0,0.502-0.078,0.709-0.235
							c0.205-0.156,0.34-0.364,0.404-0.622v-3.533L502.149,306.358L502.149,306.358z"/>
						<path fill="#585A5E" d="M506.963,310.06h1.113c-0.098,0.549-0.342,0.983-0.73,1.307c-0.395,0.323-0.902,0.484-1.531,0.484
							c-0.75,0-1.361-0.259-1.834-0.774c-0.471-0.516-0.707-1.189-0.707-2.021c0-0.807,0.238-1.479,0.713-2.015
							c0.477-0.537,1.078-0.805,1.805-0.805c0.74,0,1.316,0.24,1.725,0.72c0.406,0.48,0.609,1.123,0.609,1.93v0.437h-3.666
							c0.018,0.468,0.146,0.837,0.395,1.106c0.246,0.271,0.566,0.405,0.961,0.405C506.449,310.834,506.834,310.576,506.963,310.06z
							 M505.803,307.253c-0.34,0-0.623,0.104-0.855,0.31c-0.229,0.204-0.381,0.498-0.453,0.877h2.434
							c-0.008-0.348-0.109-0.632-0.305-0.854C506.432,307.363,506.156,307.253,505.803,307.253z"/>
						<path fill="#585A5E" d="M513.701,306.358v5.372h-1.209v-0.509c-0.361,0.42-0.844,0.63-1.439,0.63s-1.062-0.183-1.393-0.546
							c-0.33-0.361-0.496-0.847-0.496-1.451v-3.496h1.211v3.291c0,0.733,0.336,1.101,1.006,1.101c0.266,0,0.502-0.078,0.707-0.235
							c0.205-0.156,0.34-0.364,0.404-0.622v-3.533L513.701,306.358L513.701,306.358z"/>
						<path fill="#585A5E" d="M518.52,310.06h1.113c-0.1,0.549-0.344,0.983-0.732,1.307c-0.393,0.323-0.902,0.484-1.531,0.484
							c-0.75,0-1.361-0.259-1.832-0.774c-0.473-0.517-0.709-1.189-0.709-2.021c0-0.807,0.238-1.479,0.715-2.015
							c0.477-0.537,1.076-0.805,1.803-0.805c0.742,0,1.316,0.24,1.725,0.72c0.406,0.48,0.611,1.123,0.611,1.93v0.437h-3.666
							c0.016,0.468,0.146,0.837,0.393,1.106c0.248,0.271,0.566,0.405,0.961,0.405C518.006,310.834,518.391,310.576,518.52,310.06z
							 M517.358,307.253c-0.338,0-0.623,0.104-0.854,0.31c-0.23,0.204-0.383,0.498-0.453,0.877h2.432
							c-0.008-0.348-0.107-0.632-0.303-0.854C517.987,307.363,517.713,307.253,517.358,307.253z"/>
					</g>
				</g>
			</g>
		</g>
		<g>
			<g enable-background="new    ">
				<path fill="#585A5E" d="M272.773,351.274h1.425c0.098,0.828,0.528,1.24,1.293,1.24c0.916,0,1.373-0.559,1.373-1.677v-5.306
					h1.373v5.306c0,0.951-0.241,1.677-0.726,2.179s-1.148,0.753-1.994,0.753c-0.836,0-1.487-0.228-1.953-0.681
					S272.835,352.031,272.773,351.274z"/>
				<path fill="#585A5E" d="M284.389,353.636h-0.977l-2.23-5.637v5.637h-1.307v-8.104h1.57l2.47,6.229l2.441-6.229h1.531v8.104
					h-1.32V348L284.389,353.636z"/>
				<path fill="#585A5E" d="M289.05,351.393h1.398c0.256,0.81,0.867,1.215,1.835,1.215c0.476,0,0.855-0.108,1.143-0.323
					c0.286-0.216,0.429-0.509,0.429-0.878c0-0.291-0.09-0.521-0.271-0.693c-0.182-0.172-0.482-0.306-0.904-0.401l-1.373-0.33
					c-1.346-0.317-2.02-1.043-2.02-2.179c0-0.694,0.257-1.27,0.771-1.723s1.177-0.68,1.986-0.68c0.854,0,1.542,0.2,2.065,0.601
					c0.524,0.401,0.86,0.948,1.011,1.644h-1.373c-0.255-0.722-0.818-1.082-1.69-1.082c-0.439,0-0.794,0.104-1.062,0.311
					c-0.27,0.206-0.402,0.479-0.402,0.812c0,0.537,0.355,0.889,1.069,1.056l1.413,0.33c0.659,0.149,1.175,0.414,1.544,0.792
					c0.369,0.379,0.554,0.862,0.554,1.452c0,0.748-0.27,1.345-0.805,1.789c-0.536,0.443-1.232,0.666-2.085,0.666
					c-0.863,0-1.582-0.209-2.158-0.627C289.549,352.723,289.189,352.141,289.05,351.393z"/>
				<path fill="#585A5E" d="M302.579,350.614h-1.756v3.021h-1.372v-8.104h3.128c0.854,0,1.528,0.22,2.025,0.66
					c0.497,0.438,0.746,1.067,0.746,1.887c0,0.811-0.249,1.435-0.746,1.875C304.107,350.395,303.431,350.614,302.579,350.614z
					 M303.991,348.079c0-0.413-0.123-0.743-0.369-0.989c-0.247-0.247-0.604-0.37-1.069-0.37h-1.729v2.706h1.729
					c0.458,0,0.812-0.123,1.062-0.369C303.865,348.81,303.991,348.485,303.991,348.079z"/>
				<path fill="#585A5E" d="M309.839,347.75v1.359c-0.186-0.132-0.444-0.198-0.779-0.198c-0.282,0-0.532,0.081-0.752,0.244
					s-0.361,0.394-0.423,0.692v3.788h-1.32v-5.859h1.32v0.605c0.114-0.22,0.291-0.396,0.528-0.534
					c0.236-0.137,0.497-0.204,0.778-0.204C309.5,347.644,309.716,347.678,309.839,347.75z"/>
				<path fill="#585A5E" d="M315.442,348.502c0.516,0.572,0.772,1.308,0.772,2.204c0,0.897-0.257,1.633-0.772,2.205
					c-0.515,0.571-1.186,0.857-2.013,0.857s-1.498-0.286-2.013-0.857c-0.516-0.572-0.772-1.308-0.772-2.205
					c0-0.896,0.257-1.632,0.772-2.204c0.515-0.572,1.186-0.857,2.013-0.857S314.927,347.929,315.442,348.502z M314.511,352.098
					c0.255-0.355,0.383-0.819,0.383-1.393c0-0.571-0.128-1.036-0.383-1.393s-0.616-0.534-1.083-0.534s-0.827,0.178-1.083,0.534
					c-0.256,0.355-0.383,0.82-0.383,1.393s0.127,1.036,0.383,1.393c0.256,0.357,0.616,0.535,1.083,0.535
					S314.257,352.455,314.511,352.098z"/>
				<path fill="#585A5E" d="M321.244,353.636v-0.502c-0.142,0.178-0.349,0.326-0.621,0.449c-0.273,0.123-0.563,0.186-0.871,0.186
					c-0.836,0-1.498-0.292-1.987-0.878c-0.488-0.586-0.732-1.313-0.732-2.186s0.244-1.599,0.732-2.185
					c0.489-0.585,1.151-0.878,1.987-0.878c0.308,0,0.598,0.062,0.871,0.186c0.272,0.124,0.479,0.272,0.621,0.448v-3.222h1.319v8.58
					L321.244,353.636L321.244,353.636z M321.244,351.816v-2.219c-0.115-0.229-0.286-0.415-0.516-0.562
					c-0.229-0.145-0.479-0.218-0.752-0.218c-0.502,0-0.897,0.177-1.188,0.527c-0.291,0.354-0.437,0.807-0.437,1.359
					c0,0.555,0.146,1.008,0.437,1.36c0.29,0.352,0.686,0.526,1.188,0.526c0.272,0,0.523-0.071,0.752-0.218
					C320.958,352.231,321.129,352.044,321.244,351.816z"/>
				<path fill="#585A5E" d="M329.07,347.777v5.859h-1.319v-0.555c-0.396,0.458-0.919,0.688-1.571,0.688s-1.157-0.198-1.518-0.595
					c-0.361-0.396-0.541-0.924-0.541-1.584v-3.813h1.319v3.59c0,0.801,0.365,1.201,1.097,1.201c0.291,0,0.548-0.086,0.771-0.257
					c0.226-0.173,0.372-0.398,0.442-0.682v-3.854L329.07,347.777L329.07,347.777z"/>
				<path fill="#585A5E" d="M331.063,352.917c-0.51-0.566-0.766-1.305-0.766-2.211s0.255-1.644,0.766-2.211s1.166-0.852,1.967-0.852
					c0.688,0,1.245,0.179,1.677,0.534c0.431,0.356,0.69,0.834,0.778,1.433h-1.319c-0.054-0.265-0.179-0.466-0.376-0.606
					c-0.198-0.141-0.446-0.212-0.746-0.212c-0.432,0-0.777,0.179-1.036,0.535c-0.26,0.356-0.391,0.816-0.391,1.379
					c0,0.563,0.131,1.023,0.391,1.38c0.259,0.356,0.604,0.534,1.036,0.534c0.299,0,0.548-0.07,0.746-0.211
					c0.197-0.141,0.323-0.343,0.376-0.607h1.319c-0.088,0.6-0.348,1.076-0.778,1.434c-0.432,0.356-0.99,0.534-1.677,0.534
					C332.229,353.769,331.574,353.485,331.063,352.917z"/>
				<path fill="#585A5E" d="M340.277,351.816h1.214c-0.104,0.599-0.371,1.072-0.798,1.425s-0.982,0.528-1.67,0.528
					c-0.817,0-1.484-0.281-2-0.846c-0.515-0.562-0.771-1.298-0.771-2.204c0-0.88,0.259-1.611,0.778-2.197
					c0.52-0.585,1.176-0.878,1.968-0.878c0.81,0,1.437,0.263,1.881,0.785c0.443,0.523,0.667,1.227,0.667,2.105v0.475h-4
					c0.018,0.512,0.161,0.913,0.429,1.208s0.618,0.442,1.049,0.442C339.719,352.66,340.136,352.378,340.277,351.816z
					 M339.01,348.753c-0.37,0-0.68,0.112-0.931,0.336c-0.25,0.226-0.416,0.544-0.495,0.957h2.652
					c-0.009-0.378-0.118-0.688-0.329-0.931C339.696,348.874,339.397,348.753,339.01,348.753z"/>
				<path fill="#585A5E" d="M346.032,347.75v1.359c-0.185-0.132-0.443-0.198-0.778-0.198c-0.282,0-0.532,0.081-0.752,0.244
					c-0.221,0.163-0.361,0.394-0.423,0.692v3.788h-1.32v-5.859h1.32v0.605c0.113-0.22,0.291-0.396,0.527-0.534
					c0.237-0.137,0.497-0.204,0.779-0.204C345.693,347.644,345.909,347.678,346.032,347.75z"/>
			</g>
		</g>
		<g>
			<g enable-background="new    ">
				<path fill="#585A5E" d="M658.258,351.274h1.426c0.098,0.828,0.527,1.24,1.293,1.24c0.916,0,1.373-0.559,1.373-1.677v-5.306
					h1.373v5.306c0,0.951-0.242,1.677-0.727,2.179c-0.482,0.502-1.146,0.753-1.992,0.753c-0.836,0-1.486-0.228-1.953-0.681
					S658.321,352.031,658.258,351.274z"/>
				<path fill="#585A5E" d="M669.873,353.636h-0.977l-2.23-5.637v5.637h-1.309v-8.104h1.572l2.469,6.229l2.441-6.229h1.531v8.104
					h-1.32V348L669.873,353.636z"/>
				<path fill="#585A5E" d="M674.533,351.393h1.398c0.256,0.81,0.867,1.215,1.834,1.215c0.477,0,0.855-0.108,1.143-0.323
					c0.285-0.216,0.43-0.509,0.43-0.878c0-0.291-0.092-0.521-0.271-0.693s-0.48-0.306-0.904-0.401l-1.373-0.33
					c-1.346-0.317-2.02-1.043-2.02-2.179c0-0.694,0.258-1.27,0.771-1.723c0.516-0.453,1.178-0.68,1.986-0.68
					c0.855,0,1.543,0.2,2.066,0.601c0.521,0.401,0.859,0.948,1.01,1.644h-1.373c-0.254-0.722-0.818-1.082-1.689-1.082
					c-0.439,0-0.793,0.104-1.062,0.311c-0.268,0.206-0.402,0.479-0.402,0.812c0,0.537,0.357,0.889,1.07,1.056l1.412,0.33
					c0.66,0.149,1.174,0.414,1.545,0.792c0.369,0.379,0.553,0.862,0.553,1.452c0,0.748-0.268,1.345-0.805,1.789
					c-0.537,0.443-1.232,0.666-2.086,0.666c-0.861,0-1.582-0.209-2.158-0.627S674.674,352.141,674.533,351.393z"/>
				<path fill="#585A5E" d="M685.549,352.601c-0.699-0.779-1.051-1.784-1.051-3.018c0-1.23,0.352-2.237,1.051-3.016
					c0.697-0.779,1.578-1.168,2.633-1.168c0.896,0,1.633,0.238,2.205,0.719c0.57,0.479,0.938,1.134,1.096,1.96h-1.346
					c-0.355-0.959-1.004-1.438-1.955-1.438c-0.703,0-1.262,0.274-1.676,0.824c-0.414,0.551-0.621,1.256-0.621,2.118
					c0,0.863,0.207,1.569,0.621,2.119s0.973,0.825,1.676,0.825c0.951,0,1.602-0.484,1.955-1.452h1.346
					c-0.158,0.836-0.523,1.493-1.096,1.974c-0.572,0.479-1.309,0.72-2.205,0.72C687.127,353.769,686.246,353.379,685.549,352.601z"
					/>
				<path fill="#585A5E" d="M697.123,348.502c0.518,0.572,0.773,1.308,0.773,2.204c0,0.897-0.258,1.633-0.773,2.205
					c-0.514,0.571-1.186,0.857-2.012,0.857c-0.828,0-1.498-0.286-2.014-0.857c-0.516-0.572-0.771-1.308-0.771-2.205
					c0-0.896,0.258-1.632,0.771-2.204c0.516-0.572,1.186-0.857,2.014-0.857C695.938,347.644,696.61,347.929,697.123,348.502z
					 M696.196,352.098c0.254-0.355,0.383-0.819,0.383-1.393c0-0.571-0.129-1.036-0.383-1.393c-0.256-0.356-0.617-0.534-1.084-0.534
					c-0.465,0-0.826,0.178-1.082,0.534c-0.256,0.355-0.383,0.82-0.383,1.393s0.127,1.036,0.383,1.393s0.617,0.535,1.082,0.535
					C695.578,352.634,695.94,352.455,696.196,352.098z"/>
				<path fill="#585A5E" d="M699.123,353.636v-5.859h1.32v0.554c0.396-0.457,0.924-0.687,1.584-0.687c0.65,0,1.16,0.197,1.525,0.595
					c0.363,0.396,0.547,0.924,0.547,1.584v3.813h-1.32v-3.591c0-0.378-0.092-0.673-0.275-0.884
					c-0.186-0.211-0.463-0.317-0.832-0.317c-0.289,0-0.551,0.086-0.777,0.259c-0.23,0.172-0.379,0.397-0.449,0.68v3.854H699.123z"/>
				<path fill="#585A5E" d="M705.248,351.947h1.348c0.148,0.493,0.537,0.739,1.162,0.739c0.307,0,0.551-0.061,0.73-0.18
					c0.182-0.118,0.271-0.292,0.271-0.521c0-0.158-0.053-0.283-0.158-0.376c-0.105-0.092-0.281-0.169-0.527-0.23l-1.215-0.291
					c-0.969-0.229-1.451-0.766-1.451-1.609c0-0.527,0.209-0.967,0.627-1.313s0.947-0.521,1.59-0.521c0.67,0,1.201,0.151,1.598,0.456
					c0.396,0.304,0.646,0.728,0.752,1.272h-1.293c-0.133-0.431-0.488-0.646-1.068-0.646c-0.256,0-0.477,0.057-0.66,0.171
					c-0.186,0.115-0.275,0.282-0.275,0.502c0,0.256,0.201,0.436,0.605,0.541l1.24,0.291c1.004,0.236,1.504,0.792,1.504,1.663
					c0,0.571-0.213,1.026-0.639,1.365c-0.428,0.34-0.975,0.509-1.645,0.509c-0.686,0-1.252-0.162-1.695-0.488
					C705.604,352.955,705.338,352.51,705.248,351.947z"/>
				<path fill="#585A5E" d="M716.192,347.777v5.859h-1.32v-0.555c-0.395,0.458-0.918,0.688-1.57,0.688
					c-0.65,0-1.156-0.198-1.518-0.595c-0.361-0.396-0.541-0.924-0.541-1.584v-3.813h1.32v3.59c0,0.801,0.365,1.201,1.096,1.201
					c0.289,0,0.547-0.086,0.771-0.257c0.225-0.173,0.371-0.398,0.441-0.682v-3.854L716.192,347.777L716.192,347.777z"/>
				<path fill="#585A5E" d="M722.156,348.423c0.449-0.52,1.031-0.778,1.744-0.778c0.598,0,1.064,0.195,1.398,0.588
					c0.334,0.392,0.502,0.922,0.502,1.591v3.813h-1.32v-3.604c0-0.37-0.082-0.662-0.244-0.878c-0.164-0.216-0.402-0.323-0.719-0.323
					c-0.248,0-0.469,0.075-0.668,0.226c-0.197,0.148-0.322,0.364-0.375,0.646v3.934h-1.32v-3.604c0-0.37-0.082-0.662-0.244-0.878
					c-0.164-0.216-0.402-0.323-0.721-0.323c-0.246,0-0.469,0.075-0.666,0.226c-0.197,0.148-0.322,0.364-0.377,0.646v3.934h-1.318
					v-5.859h1.318v0.487c0.311-0.413,0.797-0.62,1.467-0.62c0.324,0,0.625,0.072,0.896,0.218
					C721.783,348.007,721.998,348.194,722.156,348.423z"/>
				<path fill="#585A5E" d="M730.977,351.816h1.213c-0.104,0.599-0.371,1.072-0.797,1.425c-0.428,0.353-0.984,0.528-1.67,0.528
					c-0.818,0-1.486-0.281-2-0.846c-0.518-0.562-0.773-1.298-0.773-2.204c0-0.88,0.26-1.611,0.779-2.197
					c0.52-0.585,1.176-0.878,1.967-0.878c0.811,0,1.438,0.263,1.881,0.785c0.445,0.523,0.668,1.227,0.668,2.105v0.475h-4
					c0.018,0.512,0.16,0.913,0.43,1.208c0.268,0.295,0.617,0.442,1.049,0.442C730.418,352.66,730.836,352.378,730.977,351.816z
					 M729.707,348.753c-0.367,0-0.68,0.112-0.93,0.336c-0.252,0.226-0.416,0.544-0.496,0.957h2.654
					c-0.01-0.378-0.119-0.688-0.33-0.931C730.395,348.874,730.096,348.753,729.707,348.753z"/>
				<path fill="#585A5E" d="M736.731,347.75v1.359c-0.184-0.132-0.443-0.198-0.779-0.198c-0.281,0-0.531,0.081-0.752,0.244
					c-0.219,0.163-0.359,0.394-0.422,0.692v3.788h-1.32v-5.859h1.32v0.605c0.113-0.22,0.291-0.396,0.527-0.534
					c0.238-0.137,0.498-0.204,0.779-0.204C736.393,347.644,736.608,347.678,736.731,347.75z"/>
			</g>
		</g>
	</g>
	
		<rect x="42.945" y="193.948" fill="none" stroke="#A6A8AB" stroke-width="0.15" stroke-miterlimit="10" width="756" height="209.834"/>
</g>
</svg>
